<svg width="393" height="852" viewBox="0 0 393 852" fill="none" xmlns="http://www.w3.org/2000/svg">
<g clip-path="url(#clip0_439_1072)">
<rect width="393" height="889" fill="#5B30AF"/>
<path d="M156.172 662C156.06 662 155.968 661.964 155.896 661.892C155.832 661.82 155.8 661.736 155.8 661.64V653.96C155.8 653.864 155.836 653.78 155.908 653.708C155.98 653.636 156.064 653.6 156.16 653.6H160.528C160.632 653.6 160.716 653.636 160.78 653.708C160.852 653.772 160.888 653.856 160.888 653.96C160.888 654.056 160.852 654.14 160.78 654.212C160.716 654.276 160.632 654.308 160.528 654.308H156.484L156.532 654.236V657.428L156.472 657.32H159.988C160.092 657.32 160.176 657.356 160.24 657.428C160.312 657.492 160.348 657.572 160.348 657.668C160.348 657.772 160.312 657.856 160.24 657.92C160.176 657.984 160.092 658.016 159.988 658.016H156.448L156.532 657.92V661.64C156.532 661.736 156.496 661.82 156.424 661.892C156.36 661.964 156.276 662 156.172 662ZM167.953 658.928C167.953 659.536 167.821 660.084 167.557 660.572C167.293 661.052 166.933 661.432 166.477 661.712C166.021 661.984 165.501 662.12 164.917 662.12C164.349 662.12 163.833 661.984 163.369 661.712C162.913 661.432 162.549 661.052 162.277 660.572C162.013 660.084 161.881 659.536 161.881 658.928C161.881 658.312 162.013 657.764 162.277 657.284C162.549 656.804 162.913 656.424 163.369 656.144C163.833 655.864 164.349 655.724 164.917 655.724C165.501 655.724 166.021 655.864 166.477 656.144C166.933 656.424 167.293 656.804 167.557 657.284C167.821 657.764 167.953 658.312 167.953 658.928ZM167.233 658.928C167.233 658.44 167.133 658.008 166.933 657.632C166.733 657.248 166.457 656.948 166.105 656.732C165.761 656.508 165.365 656.396 164.917 656.396C164.485 656.396 164.093 656.508 163.741 656.732C163.389 656.948 163.109 657.248 162.901 657.632C162.701 658.008 162.601 658.44 162.601 658.928C162.601 659.416 162.701 659.848 162.901 660.224C163.109 660.6 163.389 660.9 163.741 661.124C164.093 661.34 164.485 661.448 164.917 661.448C165.365 661.448 165.761 661.34 166.105 661.124C166.457 660.9 166.733 660.6 166.933 660.224C167.133 659.848 167.233 659.416 167.233 658.928ZM169.843 662C169.731 662 169.643 661.964 169.579 661.892C169.515 661.82 169.483 661.736 169.483 661.64V656.264C169.483 656.168 169.515 656.084 169.579 656.012C169.651 655.94 169.739 655.904 169.843 655.904C169.947 655.904 170.031 655.94 170.095 656.012C170.167 656.084 170.203 656.168 170.203 656.264V658.064L170.023 658.1C170.047 657.82 170.115 657.544 170.227 657.272C170.347 656.992 170.507 656.736 170.707 656.504C170.907 656.272 171.143 656.084 171.415 655.94C171.695 655.796 172.007 655.724 172.351 655.724C172.495 655.724 172.635 655.756 172.771 655.82C172.907 655.876 172.975 655.972 172.975 656.108C172.975 656.228 172.943 656.32 172.879 656.384C172.815 656.448 172.739 656.48 172.651 656.48C172.579 656.48 172.499 656.46 172.411 656.42C172.331 656.38 172.223 656.36 172.087 656.36C171.863 656.36 171.639 656.428 171.415 656.564C171.191 656.692 170.987 656.868 170.803 657.092C170.619 657.316 170.471 657.568 170.359 657.848C170.255 658.12 170.203 658.396 170.203 658.676V661.64C170.203 661.736 170.167 661.82 170.095 661.892C170.023 661.964 169.939 662 169.843 662ZM176.481 655.724C176.841 655.724 177.173 655.788 177.477 655.916C177.781 656.036 178.045 656.196 178.269 656.396C178.501 656.588 178.681 656.796 178.809 657.02C178.937 657.236 179.001 657.444 179.001 657.644L178.797 657.356V656.24C178.797 656.136 178.829 656.048 178.893 655.976C178.965 655.904 179.053 655.868 179.157 655.868C179.269 655.868 179.357 655.904 179.421 655.976C179.485 656.048 179.517 656.136 179.517 656.24V661.436C179.517 662.076 179.385 662.616 179.121 663.056C178.857 663.496 178.497 663.828 178.041 664.052C177.593 664.284 177.081 664.4 176.505 664.4C176.225 664.4 175.929 664.364 175.617 664.292C175.313 664.22 175.049 664.128 174.825 664.016C174.609 663.904 174.489 663.788 174.465 663.668C174.401 663.596 174.369 663.524 174.369 663.452C174.377 663.388 174.413 663.332 174.477 663.284C174.557 663.228 174.641 663.22 174.729 663.26C174.817 663.308 174.949 663.368 175.125 663.44C175.205 663.464 175.313 663.5 175.449 663.548C175.585 663.596 175.745 663.636 175.929 663.668C176.121 663.708 176.321 663.728 176.529 663.728C177.249 663.728 177.805 663.52 178.197 663.104C178.597 662.696 178.797 662.156 178.797 661.484V660.332L178.929 660.368C178.857 660.656 178.737 660.908 178.569 661.124C178.409 661.34 178.217 661.524 177.993 661.676C177.769 661.82 177.525 661.928 177.261 662C177.005 662.08 176.749 662.12 176.493 662.12C175.941 662.12 175.445 661.98 175.005 661.7C174.565 661.42 174.213 661.04 173.949 660.56C173.693 660.08 173.565 659.532 173.565 658.916C173.565 658.308 173.693 657.764 173.949 657.284C174.213 656.796 174.561 656.416 174.993 656.144C175.433 655.864 175.929 655.724 176.481 655.724ZM176.565 656.396C176.125 656.396 175.729 656.508 175.377 656.732C175.033 656.948 174.761 657.248 174.561 657.632C174.369 658.008 174.273 658.436 174.273 658.916C174.273 659.396 174.369 659.828 174.561 660.212C174.761 660.596 175.033 660.9 175.377 661.124C175.729 661.34 176.125 661.448 176.565 661.448C177.005 661.448 177.397 661.34 177.741 661.124C178.085 660.908 178.357 660.612 178.557 660.236C178.757 659.852 178.857 659.412 178.857 658.916C178.857 658.42 178.757 657.984 178.557 657.608C178.357 657.224 178.085 656.928 177.741 656.72C177.397 656.504 177.005 656.396 176.565 656.396ZM186.89 658.928C186.89 659.536 186.758 660.084 186.494 660.572C186.23 661.052 185.87 661.432 185.414 661.712C184.958 661.984 184.438 662.12 183.854 662.12C183.286 662.12 182.77 661.984 182.306 661.712C181.85 661.432 181.486 661.052 181.214 660.572C180.95 660.084 180.818 659.536 180.818 658.928C180.818 658.312 180.95 657.764 181.214 657.284C181.486 656.804 181.85 656.424 182.306 656.144C182.77 655.864 183.286 655.724 183.854 655.724C184.438 655.724 184.958 655.864 185.414 656.144C185.87 656.424 186.23 656.804 186.494 657.284C186.758 657.764 186.89 658.312 186.89 658.928ZM186.17 658.928C186.17 658.44 186.07 658.008 185.87 657.632C185.67 657.248 185.394 656.948 185.042 656.732C184.698 656.508 184.302 656.396 183.854 656.396C183.422 656.396 183.03 656.508 182.678 656.732C182.326 656.948 182.046 657.248 181.838 657.632C181.638 658.008 181.538 658.44 181.538 658.928C181.538 659.416 181.638 659.848 181.838 660.224C182.046 660.6 182.326 660.9 182.678 661.124C183.03 661.34 183.422 661.448 183.854 661.448C184.302 661.448 184.698 661.34 185.042 661.124C185.394 660.9 185.67 660.6 185.87 660.224C186.07 659.848 186.17 659.416 186.17 658.928ZM188.025 655.892H190.821C190.917 655.892 190.997 655.928 191.061 656C191.125 656.064 191.157 656.144 191.157 656.24C191.157 656.328 191.125 656.404 191.061 656.468C190.997 656.532 190.917 656.564 190.821 656.564H188.025C187.929 656.564 187.845 656.532 187.773 656.468C187.709 656.396 187.677 656.316 187.677 656.228C187.677 656.132 187.709 656.052 187.773 655.988C187.845 655.924 187.929 655.892 188.025 655.892ZM189.261 654.2C189.365 654.2 189.449 654.236 189.513 654.308C189.585 654.38 189.621 654.464 189.621 654.56V660.584C189.621 660.808 189.649 660.976 189.705 661.088C189.769 661.2 189.849 661.276 189.945 661.316C190.041 661.348 190.137 661.364 190.233 661.364C190.297 661.364 190.353 661.356 190.401 661.34C190.457 661.316 190.517 661.304 190.581 661.304C190.653 661.304 190.713 661.332 190.761 661.388C190.817 661.444 190.845 661.516 190.845 661.604C190.845 661.716 190.781 661.812 190.653 661.892C190.525 661.964 190.373 662 190.197 662C190.125 662 190.017 661.996 189.873 661.988C189.729 661.972 189.581 661.928 189.429 661.856C189.277 661.776 189.149 661.64 189.045 661.448C188.949 661.256 188.901 660.98 188.901 660.62V654.56C188.901 654.464 188.933 654.38 188.997 654.308C189.069 654.236 189.157 654.2 189.261 654.2ZM199.152 653.6C199.6 653.6 199.996 653.704 200.34 653.912C200.684 654.112 200.956 654.392 201.156 654.752C201.356 655.112 201.456 655.524 201.456 655.988C201.456 656.452 201.356 656.872 201.156 657.248C200.956 657.616 200.684 657.908 200.34 658.124C199.996 658.34 199.6 658.448 199.152 658.448H196.608L196.668 658.328V661.64C196.668 661.736 196.632 661.82 196.56 661.892C196.488 661.964 196.404 662 196.308 662C196.196 662 196.108 661.964 196.044 661.892C195.98 661.82 195.948 661.736 195.948 661.64V653.96C195.948 653.864 195.984 653.78 196.056 653.708C196.128 653.636 196.212 653.6 196.308 653.6H199.152ZM199.152 657.752C199.464 657.752 199.736 657.676 199.968 657.524C200.2 657.364 200.38 657.152 200.508 656.888C200.644 656.616 200.712 656.316 200.712 655.988C200.712 655.66 200.644 655.372 200.508 655.124C200.38 654.868 200.2 654.668 199.968 654.524C199.736 654.38 199.464 654.308 199.152 654.308H196.608L196.668 654.2V657.824L196.596 657.752H199.152ZM207.886 655.868C207.99 655.868 208.074 655.904 208.138 655.976C208.21 656.048 208.246 656.136 208.246 656.24V661.64C208.246 661.736 208.21 661.82 208.138 661.892C208.066 661.964 207.982 662 207.886 662C207.782 662 207.694 661.964 207.622 661.892C207.558 661.82 207.526 661.736 207.526 661.64V660.212L207.73 660.116C207.73 660.34 207.666 660.568 207.538 660.8C207.418 661.032 207.25 661.248 207.034 661.448C206.818 661.648 206.562 661.812 206.266 661.94C205.978 662.06 205.666 662.12 205.33 662.12C204.786 662.12 204.298 661.98 203.866 661.7C203.442 661.42 203.106 661.036 202.858 660.548C202.618 660.06 202.498 659.512 202.498 658.904C202.498 658.28 202.622 657.732 202.87 657.26C203.118 656.78 203.454 656.404 203.878 656.132C204.302 655.86 204.782 655.724 205.318 655.724C205.662 655.724 205.982 655.784 206.278 655.904C206.582 656.024 206.846 656.188 207.07 656.396C207.294 656.604 207.466 656.844 207.586 657.116C207.714 657.38 207.778 657.656 207.778 657.944L207.526 657.764V656.24C207.526 656.136 207.558 656.048 207.622 655.976C207.694 655.904 207.782 655.868 207.886 655.868ZM205.39 661.448C205.814 661.448 206.19 661.34 206.518 661.124C206.846 660.9 207.102 660.596 207.286 660.212C207.478 659.82 207.574 659.384 207.574 658.904C207.574 658.432 207.478 658.008 207.286 657.632C207.102 657.256 206.846 656.956 206.518 656.732C206.19 656.508 205.814 656.396 205.39 656.396C204.974 656.396 204.598 656.504 204.262 656.72C203.934 656.936 203.674 657.232 203.482 657.608C203.298 657.984 203.206 658.416 203.206 658.904C203.206 659.384 203.298 659.82 203.482 660.212C203.674 660.596 203.934 660.9 204.262 661.124C204.59 661.34 204.966 661.448 205.39 661.448ZM209.788 661.028C209.724 660.932 209.692 660.84 209.692 660.752C209.7 660.656 209.752 660.58 209.848 660.524C209.912 660.468 209.984 660.444 210.064 660.452C210.152 660.46 210.232 660.5 210.304 660.572C210.52 660.852 210.78 661.08 211.084 661.256C211.396 661.424 211.764 661.508 212.188 661.508C212.412 661.508 212.632 661.472 212.848 661.4C213.072 661.32 213.256 661.204 213.4 661.052C213.544 660.892 213.616 660.692 213.616 660.452C213.616 660.204 213.544 660.004 213.4 659.852C213.256 659.7 213.068 659.58 212.836 659.492C212.612 659.404 212.372 659.328 212.116 659.264C211.844 659.192 211.58 659.112 211.324 659.024C211.068 658.928 210.84 658.812 210.64 658.676C210.448 658.532 210.292 658.36 210.172 658.16C210.052 657.96 209.992 657.716 209.992 657.428C209.992 657.092 210.084 656.796 210.268 656.54C210.452 656.284 210.7 656.084 211.012 655.94C211.332 655.796 211.692 655.724 212.092 655.724C212.292 655.724 212.508 655.752 212.74 655.808C212.972 655.856 213.2 655.94 213.424 656.06C213.648 656.18 213.848 656.344 214.024 656.552C214.096 656.624 214.132 656.708 214.132 656.804C214.132 656.892 214.092 656.972 214.012 657.044C213.948 657.092 213.872 657.116 213.784 657.116C213.704 657.116 213.636 657.084 213.58 657.02C213.388 656.804 213.16 656.64 212.896 656.528C212.632 656.416 212.348 656.36 212.044 656.36C211.812 656.36 211.592 656.4 211.384 656.48C211.184 656.552 211.016 656.664 210.88 656.816C210.744 656.968 210.676 657.168 210.676 657.416C210.692 657.648 210.772 657.836 210.916 657.98C211.068 658.124 211.264 658.244 211.504 658.34C211.752 658.436 212.028 658.524 212.332 658.604C212.588 658.668 212.832 658.744 213.064 658.832C213.304 658.92 213.512 659.032 213.688 659.168C213.872 659.296 214.016 659.46 214.12 659.66C214.232 659.86 214.288 660.112 214.288 660.416C214.288 660.768 214.188 661.072 213.988 661.328C213.796 661.584 213.536 661.78 213.208 661.916C212.88 662.052 212.516 662.12 212.116 662.12C211.684 662.12 211.264 662.036 210.856 661.868C210.456 661.7 210.1 661.42 209.788 661.028ZM215.413 661.028C215.349 660.932 215.317 660.84 215.317 660.752C215.325 660.656 215.377 660.58 215.473 660.524C215.537 660.468 215.609 660.444 215.689 660.452C215.777 660.46 215.857 660.5 215.929 660.572C216.145 660.852 216.405 661.08 216.709 661.256C217.021 661.424 217.389 661.508 217.812 661.508C218.037 661.508 218.257 661.472 218.473 661.4C218.697 661.32 218.881 661.204 219.025 661.052C219.169 660.892 219.241 660.692 219.241 660.452C219.241 660.204 219.169 660.004 219.025 659.852C218.881 659.7 218.693 659.58 218.461 659.492C218.237 659.404 217.997 659.328 217.741 659.264C217.469 659.192 217.205 659.112 216.949 659.024C216.693 658.928 216.465 658.812 216.265 658.676C216.073 658.532 215.917 658.36 215.797 658.16C215.677 657.96 215.617 657.716 215.617 657.428C215.617 657.092 215.709 656.796 215.893 656.54C216.077 656.284 216.325 656.084 216.637 655.94C216.957 655.796 217.317 655.724 217.717 655.724C217.917 655.724 218.133 655.752 218.365 655.808C218.597 655.856 218.825 655.94 219.049 656.06C219.273 656.18 219.473 656.344 219.649 656.552C219.721 656.624 219.757 656.708 219.757 656.804C219.757 656.892 219.717 656.972 219.637 657.044C219.573 657.092 219.497 657.116 219.409 657.116C219.329 657.116 219.261 657.084 219.205 657.02C219.013 656.804 218.785 656.64 218.521 656.528C218.257 656.416 217.973 656.36 217.669 656.36C217.437 656.36 217.217 656.4 217.009 656.48C216.809 656.552 216.641 656.664 216.505 656.816C216.369 656.968 216.301 657.168 216.301 657.416C216.317 657.648 216.397 657.836 216.541 657.98C216.693 658.124 216.889 658.244 217.129 658.34C217.377 658.436 217.653 658.524 217.957 658.604C218.213 658.668 218.457 658.744 218.689 658.832C218.929 658.92 219.137 659.032 219.313 659.168C219.497 659.296 219.641 659.46 219.745 659.66C219.857 659.86 219.913 660.112 219.913 660.416C219.913 660.768 219.813 661.072 219.613 661.328C219.421 661.584 219.161 661.78 218.833 661.916C218.505 662.052 218.141 662.12 217.741 662.12C217.309 662.12 216.889 662.036 216.481 661.868C216.081 661.7 215.725 661.42 215.413 661.028ZM228.67 655.736C228.758 655.736 228.838 655.768 228.91 655.832C228.99 655.896 229.03 655.984 229.03 656.096C229.03 656.12 229.026 656.148 229.018 656.18C229.01 656.212 229.002 656.236 228.994 656.252L227.146 661.772C227.114 661.844 227.062 661.904 226.99 661.952C226.926 661.992 226.858 662.008 226.786 662C226.642 661.992 226.534 661.916 226.462 661.772L224.77 657.788L224.986 657.836L223.486 661.772C223.422 661.916 223.314 661.992 223.162 662C223.09 662.008 223.018 661.992 222.946 661.952C222.874 661.904 222.826 661.844 222.802 661.772L220.906 656.252C220.882 656.196 220.87 656.144 220.87 656.096C220.87 655.992 220.902 655.908 220.966 655.844C221.038 655.772 221.13 655.736 221.242 655.736C221.314 655.736 221.378 655.756 221.434 655.796C221.498 655.836 221.542 655.896 221.566 655.976L223.27 661.088L223.042 661.076L224.59 657.176C224.654 657.024 224.766 656.948 224.926 656.948C225.006 656.948 225.074 656.968 225.13 657.008C225.186 657.048 225.23 657.104 225.262 657.176L226.906 661.088L226.642 661.1L228.334 655.976C228.382 655.816 228.494 655.736 228.67 655.736ZM236.121 658.928C236.121 659.536 235.989 660.084 235.725 660.572C235.461 661.052 235.101 661.432 234.645 661.712C234.189 661.984 233.669 662.12 233.085 662.12C232.517 662.12 232.001 661.984 231.537 661.712C231.081 661.432 230.717 661.052 230.445 660.572C230.181 660.084 230.049 659.536 230.049 658.928C230.049 658.312 230.181 657.764 230.445 657.284C230.717 656.804 231.081 656.424 231.537 656.144C232.001 655.864 232.517 655.724 233.085 655.724C233.669 655.724 234.189 655.864 234.645 656.144C235.101 656.424 235.461 656.804 235.725 657.284C235.989 657.764 236.121 658.312 236.121 658.928ZM235.401 658.928C235.401 658.44 235.301 658.008 235.101 657.632C234.901 657.248 234.625 656.948 234.273 656.732C233.929 656.508 233.533 656.396 233.085 656.396C232.653 656.396 232.261 656.508 231.909 656.732C231.557 656.948 231.277 657.248 231.069 657.632C230.869 658.008 230.769 658.44 230.769 658.928C230.769 659.416 230.869 659.848 231.069 660.224C231.277 660.6 231.557 660.9 231.909 661.124C232.261 661.34 232.653 661.448 233.085 661.448C233.533 661.448 233.929 661.34 234.273 661.124C234.625 660.9 234.901 660.6 235.101 660.224C235.301 659.848 235.401 659.416 235.401 658.928ZM238.011 662C237.899 662 237.811 661.964 237.747 661.892C237.683 661.82 237.651 661.736 237.651 661.64V656.264C237.651 656.168 237.683 656.084 237.747 656.012C237.819 655.94 237.907 655.904 238.011 655.904C238.115 655.904 238.199 655.94 238.263 656.012C238.335 656.084 238.371 656.168 238.371 656.264V658.064L238.191 658.1C238.215 657.82 238.283 657.544 238.395 657.272C238.515 656.992 238.675 656.736 238.875 656.504C239.075 656.272 239.311 656.084 239.583 655.94C239.863 655.796 240.175 655.724 240.519 655.724C240.663 655.724 240.803 655.756 240.939 655.82C241.075 655.876 241.143 655.972 241.143 656.108C241.143 656.228 241.111 656.32 241.047 656.384C240.983 656.448 240.907 656.48 240.819 656.48C240.747 656.48 240.667 656.46 240.579 656.42C240.499 656.38 240.391 656.36 240.255 656.36C240.031 656.36 239.807 656.428 239.583 656.564C239.359 656.692 239.155 656.868 238.971 657.092C238.787 657.316 238.639 657.568 238.527 657.848C238.423 658.12 238.371 658.396 238.371 658.676V661.64C238.371 661.736 238.335 661.82 238.263 661.892C238.191 661.964 238.107 662 238.011 662ZM247.027 653.12C247.131 653.12 247.215 653.156 247.279 653.228C247.351 653.292 247.387 653.376 247.387 653.48V661.64C247.387 661.736 247.351 661.82 247.279 661.892C247.207 661.964 247.123 662 247.027 662C246.923 662 246.835 661.964 246.763 661.892C246.699 661.82 246.667 661.736 246.667 661.64V660.212L246.871 660.044C246.871 660.268 246.811 660.504 246.691 660.752C246.571 660.992 246.399 661.216 246.175 661.424C245.959 661.632 245.703 661.8 245.407 661.928C245.119 662.056 244.807 662.12 244.471 662.12C243.935 662.12 243.451 661.98 243.019 661.7C242.595 661.42 242.259 661.04 242.011 660.56C241.763 660.08 241.639 659.532 241.639 658.916C241.639 658.308 241.763 657.764 242.011 657.284C242.259 656.796 242.595 656.416 243.019 656.144C243.443 655.864 243.923 655.724 244.459 655.724C244.787 655.724 245.099 655.784 245.395 655.904C245.691 656.024 245.951 656.188 246.175 656.396C246.407 656.604 246.587 656.844 246.715 657.116C246.851 657.38 246.919 657.656 246.919 657.944L246.667 657.764V653.48C246.667 653.384 246.699 653.3 246.763 653.228C246.835 653.156 246.923 653.12 247.027 653.12ZM244.531 661.448C244.963 661.448 245.339 661.34 245.659 661.124C245.987 660.9 246.243 660.6 246.427 660.224C246.619 659.84 246.715 659.404 246.715 658.916C246.715 658.436 246.619 658.008 246.427 657.632C246.243 657.248 245.987 656.948 245.659 656.732C245.331 656.508 244.955 656.396 244.531 656.396C244.115 656.396 243.739 656.508 243.403 656.732C243.075 656.948 242.815 657.248 242.623 657.632C242.439 658.008 242.347 658.436 242.347 658.916C242.347 659.396 242.439 659.828 242.623 660.212C242.815 660.596 243.075 660.9 243.403 661.124C243.739 661.34 244.115 661.448 244.531 661.448Z" fill="black"/>
<path d="M167.572 577.8C167.722 577.8 167.839 577.848 167.924 577.944C168.01 578.029 168.052 578.141 168.052 578.28V584.904C168.052 585.693 167.866 586.408 167.492 587.048C167.119 587.688 166.618 588.2 165.988 588.584C165.359 588.957 164.65 589.144 163.86 589.144C163.071 589.144 162.356 588.957 161.716 588.584C161.087 588.2 160.586 587.688 160.212 587.048C159.839 586.408 159.652 585.693 159.652 584.904V578.28C159.652 578.141 159.695 578.029 159.78 577.944C159.876 577.848 160.004 577.8 160.164 577.8C160.292 577.8 160.404 577.848 160.5 577.944C160.596 578.029 160.644 578.141 160.644 578.28V584.904C160.644 585.523 160.788 586.077 161.076 586.568C161.375 587.059 161.77 587.453 162.26 587.752C162.751 588.04 163.284 588.184 163.86 588.184C164.458 588.184 165.002 588.04 165.492 587.752C165.983 587.453 166.372 587.059 166.66 586.568C166.959 586.077 167.108 585.523 167.108 584.904V578.28C167.108 578.141 167.151 578.029 167.236 577.944C167.322 577.848 167.434 577.8 167.572 577.8ZM170.355 587.704C170.269 587.576 170.227 587.453 170.227 587.336C170.237 587.208 170.307 587.107 170.435 587.032C170.52 586.957 170.616 586.925 170.723 586.936C170.84 586.947 170.947 587 171.043 587.096C171.331 587.469 171.677 587.773 172.083 588.008C172.499 588.232 172.989 588.344 173.555 588.344C173.853 588.344 174.147 588.296 174.435 588.2C174.733 588.093 174.979 587.939 175.171 587.736C175.363 587.523 175.459 587.256 175.459 586.936C175.459 586.605 175.363 586.339 175.171 586.136C174.979 585.933 174.728 585.773 174.419 585.656C174.12 585.539 173.8 585.437 173.459 585.352C173.096 585.256 172.744 585.149 172.403 585.032C172.061 584.904 171.757 584.749 171.491 584.568C171.235 584.376 171.027 584.147 170.867 583.88C170.707 583.613 170.627 583.288 170.627 582.904C170.627 582.456 170.749 582.061 170.995 581.72C171.24 581.379 171.571 581.112 171.987 580.92C172.413 580.728 172.893 580.632 173.427 580.632C173.693 580.632 173.981 580.669 174.291 580.744C174.6 580.808 174.904 580.92 175.203 581.08C175.501 581.24 175.768 581.459 176.003 581.736C176.099 581.832 176.147 581.944 176.147 582.072C176.147 582.189 176.093 582.296 175.987 582.392C175.901 582.456 175.8 582.488 175.683 582.488C175.576 582.488 175.485 582.445 175.411 582.36C175.155 582.072 174.851 581.853 174.499 581.704C174.147 581.555 173.768 581.48 173.363 581.48C173.053 581.48 172.76 581.533 172.483 581.64C172.216 581.736 171.992 581.885 171.811 582.088C171.629 582.291 171.539 582.557 171.539 582.888C171.56 583.197 171.667 583.448 171.859 583.64C172.061 583.832 172.323 583.992 172.643 584.12C172.973 584.248 173.341 584.365 173.747 584.472C174.088 584.557 174.413 584.659 174.723 584.776C175.043 584.893 175.32 585.043 175.555 585.224C175.8 585.395 175.992 585.613 176.131 585.88C176.28 586.147 176.355 586.483 176.355 586.888C176.355 587.357 176.221 587.763 175.955 588.104C175.699 588.445 175.352 588.707 174.915 588.888C174.477 589.069 173.992 589.16 173.459 589.16C172.883 589.16 172.323 589.048 171.779 588.824C171.245 588.6 170.771 588.227 170.355 587.704ZM182.015 589.16C181.193 589.16 180.468 588.984 179.839 588.632C179.209 588.28 178.719 587.789 178.367 587.16C178.015 586.531 177.839 585.795 177.839 584.952C177.839 584.045 178.015 583.272 178.367 582.632C178.729 581.992 179.193 581.501 179.759 581.16C180.335 580.808 180.943 580.632 181.583 580.632C182.052 580.632 182.505 580.717 182.943 580.888C183.391 581.048 183.785 581.293 184.127 581.624C184.479 581.944 184.756 582.339 184.959 582.808C185.172 583.277 185.289 583.821 185.311 584.44C185.3 584.568 185.247 584.68 185.151 584.776C185.055 584.861 184.943 584.904 184.815 584.904H178.399L178.207 584.04H184.511L184.303 584.232V583.912C184.26 583.411 184.1 582.984 183.823 582.632C183.545 582.28 183.209 582.013 182.815 581.832C182.42 581.651 182.009 581.56 181.583 581.56C181.263 581.56 180.932 581.624 180.591 581.752C180.26 581.88 179.956 582.083 179.679 582.36C179.412 582.627 179.193 582.973 179.023 583.4C178.852 583.816 178.767 584.312 178.767 584.888C178.767 585.517 178.895 586.088 179.151 586.6C179.407 587.112 179.775 587.517 180.255 587.816C180.745 588.115 181.327 588.264 181.999 588.264C182.372 588.264 182.708 588.211 183.007 588.104C183.305 587.997 183.567 587.859 183.791 587.688C184.015 587.507 184.201 587.32 184.351 587.128C184.468 587.032 184.585 586.984 184.703 586.984C184.809 586.984 184.9 587.027 184.975 587.112C185.06 587.197 185.103 587.293 185.103 587.4C185.103 587.528 185.049 587.64 184.943 587.736C184.623 588.12 184.207 588.456 183.695 588.744C183.183 589.021 182.623 589.16 182.015 589.16ZM187.846 589C187.696 589 187.579 588.952 187.494 588.856C187.408 588.76 187.366 588.648 187.366 588.52V581.352C187.366 581.224 187.408 581.112 187.494 581.016C187.59 580.92 187.707 580.872 187.846 580.872C187.984 580.872 188.096 580.92 188.182 581.016C188.278 581.112 188.326 581.224 188.326 581.352V583.752L188.086 583.8C188.118 583.427 188.208 583.059 188.358 582.696C188.518 582.323 188.731 581.981 188.998 581.672C189.264 581.363 189.579 581.112 189.942 580.92C190.315 580.728 190.731 580.632 191.19 580.632C191.382 580.632 191.568 580.675 191.75 580.76C191.931 580.835 192.022 580.963 192.022 581.144C192.022 581.304 191.979 581.427 191.894 581.512C191.808 581.597 191.707 581.64 191.59 581.64C191.494 581.64 191.387 581.613 191.27 581.56C191.163 581.507 191.019 581.48 190.838 581.48C190.539 581.48 190.24 581.571 189.942 581.752C189.643 581.923 189.371 582.157 189.126 582.456C188.88 582.755 188.683 583.091 188.534 583.464C188.395 583.827 188.326 584.195 188.326 584.568V588.52C188.326 588.648 188.278 588.76 188.182 588.856C188.086 588.952 187.974 589 187.846 589ZM197.378 580.632C198.082 580.632 198.642 580.776 199.058 581.064C199.484 581.341 199.788 581.725 199.97 582.216C200.162 582.696 200.258 583.229 200.258 583.816V588.52C200.258 588.648 200.21 588.76 200.114 588.856C200.018 588.952 199.906 589 199.778 589C199.628 589 199.511 588.952 199.426 588.856C199.34 588.76 199.298 588.648 199.298 588.52V583.864C199.298 583.437 199.228 583.048 199.09 582.696C198.951 582.344 198.722 582.061 198.402 581.848C198.092 581.635 197.682 581.528 197.17 581.528C196.711 581.528 196.274 581.635 195.858 581.848C195.452 582.061 195.122 582.344 194.866 582.696C194.61 583.048 194.482 583.437 194.482 583.864V588.52C194.482 588.648 194.434 588.76 194.338 588.856C194.242 588.952 194.13 589 194.002 589C193.852 589 193.735 588.952 193.65 588.856C193.564 588.76 193.522 588.648 193.522 588.52V581.352C193.522 581.224 193.564 581.112 193.65 581.016C193.746 580.92 193.863 580.872 194.002 580.872C194.14 580.872 194.252 580.92 194.338 581.016C194.434 581.112 194.482 581.224 194.482 581.352V582.696L194.114 583.272C194.135 582.931 194.242 582.605 194.434 582.296C194.636 581.976 194.892 581.693 195.202 581.448C195.511 581.192 195.852 580.995 196.226 580.856C196.61 580.707 196.994 580.632 197.378 580.632ZM209.476 580.824C209.614 580.824 209.726 580.872 209.812 580.968C209.908 581.064 209.956 581.181 209.956 581.32V588.52C209.956 588.648 209.908 588.76 209.812 588.856C209.716 588.952 209.604 589 209.476 589C209.337 589 209.22 588.952 209.124 588.856C209.038 588.76 208.996 588.648 208.996 588.52V586.616L209.268 586.488C209.268 586.787 209.182 587.091 209.012 587.4C208.852 587.709 208.628 587.997 208.34 588.264C208.052 588.531 207.71 588.749 207.316 588.92C206.932 589.08 206.516 589.16 206.068 589.16C205.342 589.16 204.692 588.973 204.116 588.6C203.55 588.227 203.102 587.715 202.772 587.064C202.452 586.413 202.292 585.683 202.292 584.872C202.292 584.04 202.457 583.309 202.788 582.68C203.118 582.04 203.566 581.539 204.132 581.176C204.697 580.813 205.337 580.632 206.052 580.632C206.51 580.632 206.937 580.712 207.332 580.872C207.737 581.032 208.089 581.251 208.388 581.528C208.686 581.805 208.916 582.125 209.076 582.488C209.246 582.84 209.332 583.208 209.332 583.592L208.996 583.352V581.32C208.996 581.181 209.038 581.064 209.124 580.968C209.22 580.872 209.337 580.824 209.476 580.824ZM206.148 588.264C206.713 588.264 207.214 588.12 207.652 587.832C208.089 587.533 208.43 587.128 208.676 586.616C208.932 586.093 209.06 585.512 209.06 584.872C209.06 584.243 208.932 583.677 208.676 583.176C208.43 582.675 208.089 582.275 207.652 581.976C207.214 581.677 206.713 581.528 206.148 581.528C205.593 581.528 205.092 581.672 204.644 581.96C204.206 582.248 203.86 582.643 203.604 583.144C203.358 583.645 203.236 584.221 203.236 584.872C203.236 585.512 203.358 586.093 203.604 586.616C203.86 587.128 204.206 587.533 204.644 587.832C205.081 588.12 205.582 588.264 206.148 588.264ZM216.155 580.76C216.816 580.76 217.382 580.936 217.851 581.288C218.32 581.629 218.64 582.141 218.811 582.824L218.587 582.888L218.683 582.6C218.822 582.28 219.051 581.981 219.371 581.704C219.702 581.416 220.075 581.187 220.491 581.016C220.907 580.845 221.328 580.76 221.755 580.76C222.427 580.76 222.966 580.904 223.371 581.192C223.787 581.48 224.086 581.869 224.267 582.36C224.459 582.84 224.555 583.384 224.555 583.992V588.52C224.555 588.648 224.507 588.76 224.411 588.856C224.326 588.952 224.214 589 224.075 589C223.936 589 223.819 588.952 223.723 588.856C223.638 588.76 223.595 588.648 223.595 588.52V584.04C223.595 583.603 223.526 583.203 223.387 582.84C223.248 582.477 223.03 582.189 222.731 581.976C222.432 581.763 222.032 581.656 221.531 581.656C221.094 581.656 220.672 581.763 220.267 581.976C219.872 582.189 219.547 582.477 219.291 582.84C219.046 583.203 218.923 583.603 218.923 584.04V588.52C218.923 588.648 218.875 588.76 218.779 588.856C218.694 588.952 218.582 589 218.443 589C218.304 589 218.187 588.952 218.091 588.856C218.006 588.76 217.963 588.648 217.963 588.52V583.992C217.963 583.555 217.899 583.16 217.771 582.808C217.643 582.456 217.435 582.179 217.147 581.976C216.859 581.763 216.47 581.656 215.979 581.656C215.542 581.656 215.126 581.763 214.731 581.976C214.347 582.179 214.032 582.456 213.787 582.808C213.552 583.16 213.435 583.555 213.435 583.992V588.52C213.435 588.648 213.387 588.76 213.291 588.856C213.195 588.952 213.083 589 212.955 589C212.806 589 212.688 588.952 212.603 588.856C212.518 588.76 212.475 588.648 212.475 588.52V581.352C212.475 581.224 212.518 581.112 212.603 581.016C212.699 580.92 212.816 580.872 212.955 580.872C213.094 580.872 213.206 580.92 213.291 581.016C213.387 581.112 213.435 581.224 213.435 581.352V582.84L213.003 583.432C213.035 583.112 213.136 582.792 213.307 582.472C213.488 582.152 213.723 581.864 214.011 581.608C214.299 581.352 214.624 581.149 214.987 581C215.36 580.84 215.75 580.76 216.155 580.76ZM230.765 589.16C229.943 589.16 229.218 588.984 228.589 588.632C227.959 588.28 227.469 587.789 227.117 587.16C226.765 586.531 226.589 585.795 226.589 584.952C226.589 584.045 226.765 583.272 227.117 582.632C227.479 581.992 227.943 581.501 228.509 581.16C229.085 580.808 229.693 580.632 230.333 580.632C230.802 580.632 231.255 580.717 231.693 580.888C232.141 581.048 232.535 581.293 232.877 581.624C233.229 581.944 233.506 582.339 233.709 582.808C233.922 583.277 234.039 583.821 234.061 584.44C234.05 584.568 233.997 584.68 233.901 584.776C233.805 584.861 233.693 584.904 233.565 584.904H227.149L226.957 584.04H233.261L233.053 584.232V583.912C233.01 583.411 232.85 582.984 232.573 582.632C232.295 582.28 231.959 582.013 231.565 581.832C231.17 581.651 230.759 581.56 230.333 581.56C230.013 581.56 229.682 581.624 229.341 581.752C229.01 581.88 228.706 582.083 228.429 582.36C228.162 582.627 227.943 582.973 227.773 583.4C227.602 583.816 227.517 584.312 227.517 584.888C227.517 585.517 227.645 586.088 227.901 586.6C228.157 587.112 228.525 587.517 229.005 587.816C229.495 588.115 230.077 588.264 230.749 588.264C231.122 588.264 231.458 588.211 231.757 588.104C232.055 587.997 232.317 587.859 232.541 587.688C232.765 587.507 232.951 587.32 233.101 587.128C233.218 587.032 233.335 586.984 233.453 586.984C233.559 586.984 233.65 587.027 233.725 587.112C233.81 587.197 233.853 587.293 233.853 587.4C233.853 587.528 233.799 587.64 233.693 587.736C233.373 588.12 232.957 588.456 232.445 588.744C231.933 589.021 231.373 589.16 230.765 589.16Z" fill="black"/>
<path d="M166.104 629.8C166.701 629.8 167.229 629.939 167.688 630.216C168.147 630.483 168.509 630.856 168.776 631.336C169.043 631.816 169.176 632.365 169.176 632.984C169.176 633.603 169.043 634.163 168.776 634.664C168.509 635.155 168.147 635.544 167.688 635.832C167.229 636.12 166.701 636.264 166.104 636.264H162.712L162.792 636.104V640.52C162.792 640.648 162.744 640.76 162.648 640.856C162.552 640.952 162.44 641 162.312 641C162.163 641 162.045 640.952 161.96 640.856C161.875 640.76 161.832 640.648 161.832 640.52V630.28C161.832 630.152 161.88 630.04 161.976 629.944C162.072 629.848 162.184 629.8 162.312 629.8H166.104ZM166.104 635.336C166.52 635.336 166.883 635.235 167.192 635.032C167.501 634.819 167.741 634.536 167.912 634.184C168.093 633.821 168.184 633.421 168.184 632.984C168.184 632.547 168.093 632.163 167.912 631.832C167.741 631.491 167.501 631.224 167.192 631.032C166.883 630.84 166.52 630.744 166.104 630.744H162.712L162.792 630.6V635.432L162.696 635.336H166.104ZM177.749 632.824C177.888 632.824 178 632.872 178.085 632.968C178.181 633.064 178.229 633.181 178.229 633.32V640.52C178.229 640.648 178.181 640.76 178.085 640.856C177.989 640.952 177.877 641 177.749 641C177.611 641 177.493 640.952 177.397 640.856C177.312 640.76 177.269 640.648 177.269 640.52V638.616L177.541 638.488C177.541 638.787 177.456 639.091 177.285 639.4C177.125 639.709 176.901 639.997 176.613 640.264C176.325 640.531 175.984 640.749 175.589 640.92C175.205 641.08 174.789 641.16 174.341 641.16C173.616 641.16 172.965 640.973 172.389 640.6C171.824 640.227 171.376 639.715 171.045 639.064C170.725 638.413 170.565 637.683 170.565 636.872C170.565 636.04 170.731 635.309 171.061 634.68C171.392 634.04 171.84 633.539 172.405 633.176C172.971 632.813 173.611 632.632 174.325 632.632C174.784 632.632 175.211 632.712 175.605 632.872C176.011 633.032 176.363 633.251 176.661 633.528C176.96 633.805 177.189 634.125 177.349 634.488C177.52 634.84 177.605 635.208 177.605 635.592L177.269 635.352V633.32C177.269 633.181 177.312 633.064 177.397 632.968C177.493 632.872 177.611 632.824 177.749 632.824ZM174.421 640.264C174.987 640.264 175.488 640.12 175.925 639.832C176.363 639.533 176.704 639.128 176.949 638.616C177.205 638.093 177.333 637.512 177.333 636.872C177.333 636.243 177.205 635.677 176.949 635.176C176.704 634.675 176.363 634.275 175.925 633.976C175.488 633.677 174.987 633.528 174.421 633.528C173.867 633.528 173.365 633.672 172.917 633.96C172.48 634.248 172.133 634.643 171.877 635.144C171.632 635.645 171.509 636.221 171.509 636.872C171.509 637.512 171.632 638.093 171.877 638.616C172.133 639.128 172.48 639.533 172.917 639.832C173.355 640.12 173.856 640.264 174.421 640.264ZM180.284 639.704C180.199 639.576 180.156 639.453 180.156 639.336C180.167 639.208 180.236 639.107 180.364 639.032C180.45 638.957 180.546 638.925 180.652 638.936C180.77 638.947 180.876 639 180.972 639.096C181.26 639.469 181.607 639.773 182.012 640.008C182.428 640.232 182.919 640.344 183.484 640.344C183.783 640.344 184.076 640.296 184.364 640.2C184.663 640.093 184.908 639.939 185.1 639.736C185.292 639.523 185.388 639.256 185.388 638.936C185.388 638.605 185.292 638.339 185.1 638.136C184.908 637.933 184.658 637.773 184.348 637.656C184.05 637.539 183.73 637.437 183.388 637.352C183.026 637.256 182.674 637.149 182.332 637.032C181.991 636.904 181.687 636.749 181.42 636.568C181.164 636.376 180.956 636.147 180.796 635.88C180.636 635.613 180.556 635.288 180.556 634.904C180.556 634.456 180.679 634.061 180.924 633.72C181.17 633.379 181.5 633.112 181.916 632.92C182.343 632.728 182.823 632.632 183.356 632.632C183.623 632.632 183.911 632.669 184.22 632.744C184.53 632.808 184.834 632.92 185.132 633.08C185.431 633.24 185.698 633.459 185.932 633.736C186.028 633.832 186.076 633.944 186.076 634.072C186.076 634.189 186.023 634.296 185.916 634.392C185.831 634.456 185.73 634.488 185.612 634.488C185.506 634.488 185.415 634.445 185.34 634.36C185.084 634.072 184.78 633.853 184.428 633.704C184.076 633.555 183.698 633.48 183.292 633.48C182.983 633.48 182.69 633.533 182.412 633.64C182.146 633.736 181.922 633.885 181.74 634.088C181.559 634.291 181.468 634.557 181.468 634.888C181.49 635.197 181.596 635.448 181.788 635.64C181.991 635.832 182.252 635.992 182.572 636.12C182.903 636.248 183.271 636.365 183.676 636.472C184.018 636.557 184.343 636.659 184.652 636.776C184.972 636.893 185.25 637.043 185.484 637.224C185.73 637.395 185.922 637.613 186.06 637.88C186.21 638.147 186.284 638.483 186.284 638.888C186.284 639.357 186.151 639.763 185.884 640.104C185.628 640.445 185.282 640.707 184.844 640.888C184.407 641.069 183.922 641.16 183.388 641.16C182.812 641.16 182.252 641.048 181.708 640.824C181.175 640.6 180.7 640.227 180.284 639.704ZM187.784 639.704C187.699 639.576 187.656 639.453 187.656 639.336C187.667 639.208 187.736 639.107 187.864 639.032C187.95 638.957 188.046 638.925 188.152 638.936C188.27 638.947 188.376 639 188.472 639.096C188.76 639.469 189.107 639.773 189.512 640.008C189.928 640.232 190.419 640.344 190.984 640.344C191.283 640.344 191.576 640.296 191.864 640.2C192.163 640.093 192.408 639.939 192.6 639.736C192.792 639.523 192.888 639.256 192.888 638.936C192.888 638.605 192.792 638.339 192.6 638.136C192.408 637.933 192.158 637.773 191.848 637.656C191.55 637.539 191.23 637.437 190.888 637.352C190.526 637.256 190.174 637.149 189.832 637.032C189.491 636.904 189.187 636.749 188.92 636.568C188.664 636.376 188.456 636.147 188.296 635.88C188.136 635.613 188.056 635.288 188.056 634.904C188.056 634.456 188.179 634.061 188.424 633.72C188.67 633.379 189 633.112 189.416 632.92C189.843 632.728 190.323 632.632 190.856 632.632C191.123 632.632 191.411 632.669 191.72 632.744C192.03 632.808 192.334 632.92 192.632 633.08C192.931 633.24 193.198 633.459 193.432 633.736C193.528 633.832 193.576 633.944 193.576 634.072C193.576 634.189 193.523 634.296 193.416 634.392C193.331 634.456 193.23 634.488 193.112 634.488C193.006 634.488 192.915 634.445 192.84 634.36C192.584 634.072 192.28 633.853 191.928 633.704C191.576 633.555 191.198 633.48 190.792 633.48C190.483 633.48 190.19 633.533 189.912 633.64C189.646 633.736 189.422 633.885 189.24 634.088C189.059 634.291 188.968 634.557 188.968 634.888C188.99 635.197 189.096 635.448 189.288 635.64C189.491 635.832 189.752 635.992 190.072 636.12C190.403 636.248 190.771 636.365 191.176 636.472C191.518 636.557 191.843 636.659 192.152 636.776C192.472 636.893 192.75 637.043 192.984 637.224C193.23 637.395 193.422 637.613 193.56 637.88C193.71 638.147 193.784 638.483 193.784 638.888C193.784 639.357 193.651 639.763 193.384 640.104C193.128 640.445 192.782 640.707 192.344 640.888C191.907 641.069 191.422 641.16 190.888 641.16C190.312 641.16 189.752 641.048 189.208 640.824C188.675 640.6 188.2 640.227 187.784 639.704ZM205.46 632.648C205.578 632.648 205.684 632.691 205.78 632.776C205.887 632.861 205.94 632.979 205.94 633.128C205.94 633.16 205.935 633.197 205.924 633.24C205.914 633.283 205.903 633.315 205.892 633.336L203.428 640.696C203.386 640.792 203.316 640.872 203.22 640.936C203.135 640.989 203.044 641.011 202.948 641C202.756 640.989 202.612 640.888 202.516 640.696L200.26 635.384L200.548 635.448L198.548 640.696C198.463 640.888 198.319 640.989 198.116 641C198.02 641.011 197.924 640.989 197.828 640.936C197.732 640.872 197.668 640.792 197.636 640.696L195.108 633.336C195.076 633.261 195.06 633.192 195.06 633.128C195.06 632.989 195.103 632.877 195.188 632.792C195.284 632.696 195.407 632.648 195.556 632.648C195.652 632.648 195.738 632.675 195.812 632.728C195.898 632.781 195.956 632.861 195.988 632.968L198.26 639.784L197.956 639.768L200.02 634.568C200.106 634.365 200.255 634.264 200.468 634.264C200.575 634.264 200.666 634.291 200.74 634.344C200.815 634.397 200.874 634.472 200.916 634.568L203.108 639.784L202.756 639.8L205.012 632.968C205.076 632.755 205.226 632.648 205.46 632.648ZM215.396 636.904C215.396 637.715 215.22 638.445 214.868 639.096C214.516 639.736 214.036 640.243 213.428 640.616C212.82 640.979 212.126 641.16 211.348 641.16C210.59 641.16 209.902 640.979 209.284 640.616C208.676 640.243 208.19 639.736 207.828 639.096C207.476 638.445 207.3 637.715 207.3 636.904C207.3 636.083 207.476 635.352 207.828 634.712C208.19 634.072 208.676 633.565 209.284 633.192C209.902 632.819 210.59 632.632 211.348 632.632C212.126 632.632 212.82 632.819 213.428 633.192C214.036 633.565 214.516 634.072 214.868 634.712C215.22 635.352 215.396 636.083 215.396 636.904ZM214.436 636.904C214.436 636.253 214.302 635.677 214.036 635.176C213.769 634.664 213.401 634.264 212.932 633.976C212.473 633.677 211.945 633.528 211.348 633.528C210.772 633.528 210.249 633.677 209.78 633.976C209.31 634.264 208.937 634.664 208.66 635.176C208.393 635.677 208.26 636.253 208.26 636.904C208.26 637.555 208.393 638.131 208.66 638.632C208.937 639.133 209.31 639.533 209.78 639.832C210.249 640.12 210.772 640.264 211.348 640.264C211.945 640.264 212.473 640.12 212.932 639.832C213.401 639.533 213.769 639.133 214.036 638.632C214.302 638.131 214.436 637.555 214.436 636.904ZM217.916 641C217.767 641 217.649 640.952 217.564 640.856C217.479 640.76 217.436 640.648 217.436 640.52V633.352C217.436 633.224 217.479 633.112 217.564 633.016C217.66 632.92 217.777 632.872 217.916 632.872C218.055 632.872 218.167 632.92 218.252 633.016C218.348 633.112 218.396 633.224 218.396 633.352V635.752L218.156 635.8C218.188 635.427 218.279 635.059 218.428 634.696C218.588 634.323 218.801 633.981 219.068 633.672C219.335 633.363 219.649 633.112 220.012 632.92C220.385 632.728 220.801 632.632 221.26 632.632C221.452 632.632 221.639 632.675 221.82 632.76C222.001 632.835 222.092 632.963 222.092 633.144C222.092 633.304 222.049 633.427 221.964 633.512C221.879 633.597 221.777 633.64 221.66 633.64C221.564 633.64 221.457 633.613 221.34 633.56C221.233 633.507 221.089 633.48 220.908 633.48C220.609 633.48 220.311 633.571 220.012 633.752C219.713 633.923 219.441 634.157 219.196 634.456C218.951 634.755 218.753 635.091 218.604 635.464C218.465 635.827 218.396 636.195 218.396 636.568V640.52C218.396 640.648 218.348 640.76 218.252 640.856C218.156 640.952 218.044 641 217.916 641ZM229.937 629.16C230.075 629.16 230.187 629.208 230.273 629.304C230.369 629.389 230.417 629.501 230.417 629.64V640.52C230.417 640.648 230.369 640.76 230.273 640.856C230.177 640.952 230.065 641 229.937 641C229.798 641 229.681 640.952 229.585 640.856C229.499 640.76 229.457 640.648 229.457 640.52V638.616L229.729 638.392C229.729 638.691 229.649 639.005 229.489 639.336C229.329 639.656 229.099 639.955 228.801 640.232C228.513 640.509 228.171 640.733 227.777 640.904C227.393 641.075 226.977 641.16 226.529 641.16C225.814 641.16 225.169 640.973 224.593 640.6C224.027 640.227 223.579 639.72 223.249 639.08C222.918 638.44 222.753 637.709 222.753 636.888C222.753 636.077 222.918 635.352 223.249 634.712C223.579 634.061 224.027 633.555 224.593 633.192C225.158 632.819 225.798 632.632 226.513 632.632C226.95 632.632 227.366 632.712 227.761 632.872C228.155 633.032 228.502 633.251 228.801 633.528C229.11 633.805 229.35 634.125 229.521 634.488C229.702 634.84 229.793 635.208 229.793 635.592L229.457 635.352V629.64C229.457 629.512 229.499 629.4 229.585 629.304C229.681 629.208 229.798 629.16 229.937 629.16ZM226.609 640.264C227.185 640.264 227.686 640.12 228.113 639.832C228.55 639.533 228.891 639.133 229.137 638.632C229.393 638.12 229.521 637.539 229.521 636.888C229.521 636.248 229.393 635.677 229.137 635.176C228.891 634.664 228.55 634.264 228.113 633.976C227.675 633.677 227.174 633.528 226.609 633.528C226.054 633.528 225.553 633.677 225.105 633.976C224.667 634.264 224.321 634.664 224.065 635.176C223.819 635.677 223.697 636.248 223.697 636.888C223.697 637.528 223.819 638.104 224.065 638.616C224.321 639.128 224.667 639.533 225.105 639.832C225.553 640.12 226.054 640.264 226.609 640.264Z" fill="black"/>
<path d="M116.483 193.8C116.939 193.8 117.371 193.968 117.779 194.304C118.211 194.616 118.427 195.036 118.427 195.564C118.427 195.948 118.295 196.332 118.031 196.716L103.379 215.76L103.055 215.544H116.231C116.735 215.544 117.155 215.7 117.491 216.012C117.851 216.324 118.031 216.744 118.031 217.272C118.031 217.752 117.851 218.16 117.491 218.496C117.155 218.832 116.735 219 116.231 219H99.9231C99.3951 219 98.9391 218.82 98.5551 218.46C98.1951 218.076 98.0151 217.656 98.0151 217.2C98.0151 216.816 98.1591 216.444 98.4471 216.084L113.099 197.04L113.387 197.256H101.183C100.679 197.256 100.247 197.1 99.8871 196.788C99.5511 196.452 99.3831 196.02 99.3831 195.492C99.3831 194.988 99.5511 194.58 99.8871 194.268C100.247 193.956 100.679 193.8 101.183 193.8H116.483ZM131.012 219.36C129.02 219.36 127.292 218.952 125.828 218.136C124.364 217.296 123.224 216.156 122.408 214.716C121.616 213.252 121.22 211.584 121.22 209.712C121.22 207.6 121.64 205.8 122.48 204.312C123.344 202.8 124.46 201.648 125.828 200.856C127.196 200.04 128.648 199.632 130.184 199.632C131.36 199.632 132.476 199.872 133.532 200.352C134.588 200.808 135.524 201.456 136.34 202.296C137.18 203.112 137.84 204.084 138.32 205.212C138.8 206.316 139.052 207.528 139.076 208.848C139.052 209.328 138.86 209.724 138.5 210.036C138.14 210.348 137.72 210.504 137.24 210.504H123.236L122.372 207.444H135.908L135.224 208.092V207.192C135.176 206.352 134.9 205.62 134.396 204.996C133.892 204.348 133.268 203.856 132.524 203.52C131.78 203.16 131 202.98 130.184 202.98C129.464 202.98 128.768 203.1 128.096 203.34C127.448 203.556 126.86 203.916 126.332 204.42C125.828 204.924 125.42 205.596 125.108 206.436C124.82 207.252 124.676 208.272 124.676 209.496C124.676 210.816 124.952 211.968 125.504 212.952C126.056 213.936 126.8 214.704 127.736 215.256C128.672 215.784 129.704 216.048 130.832 216.048C131.72 216.048 132.452 215.964 133.028 215.796C133.604 215.604 134.084 215.376 134.468 215.112C134.852 214.848 135.188 214.596 135.476 214.356C135.836 214.14 136.196 214.032 136.556 214.032C136.988 214.032 137.348 214.188 137.636 214.5C137.924 214.788 138.068 215.136 138.068 215.544C138.068 216.072 137.804 216.552 137.276 216.984C136.628 217.608 135.728 218.16 134.576 218.64C133.448 219.12 132.26 219.36 131.012 219.36ZM152.901 199.632C154.605 199.632 155.925 199.992 156.861 200.712C157.797 201.408 158.445 202.356 158.805 203.556C159.189 204.732 159.381 206.052 159.381 207.516V217.164C159.381 217.692 159.201 218.136 158.841 218.496C158.505 218.832 158.085 219 157.581 219C157.053 219 156.621 218.832 156.285 218.496C155.949 218.136 155.781 217.692 155.781 217.164V207.552C155.781 206.688 155.661 205.92 155.421 205.248C155.181 204.552 154.761 204 154.161 203.592C153.585 203.16 152.769 202.944 151.713 202.944C150.729 202.944 149.865 203.16 149.121 203.592C148.377 204 147.789 204.552 147.357 205.248C146.949 205.92 146.745 206.688 146.745 207.552V217.164C146.745 217.692 146.565 218.136 146.205 218.496C145.869 218.832 145.449 219 144.945 219C144.417 219 143.985 218.832 143.649 218.496C143.313 218.136 143.145 217.692 143.145 217.164V201.9C143.145 201.372 143.313 200.94 143.649 200.604C143.985 200.244 144.417 200.064 144.945 200.064C145.449 200.064 145.869 200.244 146.205 200.604C146.565 200.94 146.745 201.372 146.745 201.9V203.916L146.097 204.276C146.265 203.748 146.553 203.22 146.961 202.692C147.393 202.14 147.909 201.636 148.509 201.18C149.109 200.7 149.781 200.328 150.525 200.064C151.269 199.776 152.061 199.632 152.901 199.632ZM173.199 192.396C173.655 192.396 174.123 192.456 174.603 192.576C175.083 192.696 175.479 192.9 175.791 193.188C176.127 193.452 176.295 193.824 176.295 194.304C176.295 194.784 176.151 195.18 175.863 195.492C175.575 195.78 175.239 195.924 174.855 195.924C174.615 195.924 174.291 195.876 173.883 195.78C173.475 195.66 173.067 195.6 172.659 195.6C172.107 195.6 171.663 195.732 171.327 195.996C170.991 196.236 170.751 196.548 170.607 196.932C170.463 197.292 170.391 197.652 170.391 198.012V217.164C170.391 217.692 170.211 218.136 169.851 218.496C169.515 218.832 169.095 219 168.591 219C168.063 219 167.631 218.832 167.295 218.496C166.959 218.136 166.791 217.692 166.791 217.164V198.048C166.791 196.392 167.331 195.036 168.411 193.98C169.515 192.924 171.111 192.396 173.199 192.396ZM173.919 200.388C174.399 200.388 174.795 200.544 175.107 200.856C175.419 201.168 175.575 201.564 175.575 202.044C175.575 202.524 175.419 202.92 175.107 203.232C174.795 203.544 174.399 203.7 173.919 203.7H164.595C164.139 203.7 163.743 203.544 163.407 203.232C163.095 202.92 162.939 202.524 162.939 202.044C162.939 201.564 163.095 201.168 163.407 200.856C163.743 200.544 164.139 200.388 164.595 200.388H173.919ZM182.559 217.164C182.559 217.692 182.391 218.136 182.055 218.496C181.719 218.832 181.287 219 180.759 219C180.255 219 179.823 218.832 179.463 218.496C179.127 218.136 178.959 217.692 178.959 217.164V201.756C178.959 201.228 179.127 200.796 179.463 200.46C179.823 200.1 180.255 199.92 180.759 199.92C181.287 199.92 181.719 200.1 182.055 200.46C182.391 200.796 182.559 201.228 182.559 201.756V217.164ZM180.759 197.544C180.063 197.544 179.559 197.424 179.247 197.184C178.935 196.92 178.779 196.488 178.779 195.888V195.312C178.779 194.712 178.947 194.292 179.283 194.052C179.619 193.812 180.123 193.692 180.795 193.692C181.515 193.692 182.031 193.824 182.343 194.088C182.655 194.328 182.811 194.736 182.811 195.312V195.888C182.811 196.512 182.643 196.944 182.307 197.184C181.995 197.424 181.479 197.544 180.759 197.544ZM187.155 200.28H195.615C196.095 200.28 196.491 200.448 196.803 200.784C197.139 201.096 197.307 201.492 197.307 201.972C197.307 202.428 197.139 202.812 196.803 203.124C196.491 203.436 196.095 203.592 195.615 203.592H187.155C186.675 203.592 186.267 203.436 185.931 203.124C185.619 202.788 185.463 202.392 185.463 201.936C185.463 201.456 185.619 201.06 185.931 200.748C186.267 200.436 186.675 200.28 187.155 200.28ZM190.935 195.6C191.463 195.6 191.895 195.78 192.231 196.14C192.567 196.476 192.735 196.908 192.735 197.436V214.14C192.735 214.572 192.807 214.92 192.951 215.184C193.095 215.448 193.287 215.628 193.527 215.724C193.791 215.82 194.055 215.868 194.319 215.868C194.583 215.868 194.811 215.82 195.003 215.724C195.219 215.628 195.471 215.58 195.759 215.58C196.047 215.58 196.311 215.712 196.551 215.976C196.791 216.24 196.911 216.6 196.911 217.056C196.911 217.632 196.599 218.1 195.975 218.46C195.351 218.82 194.679 219 193.959 219C193.551 219 193.071 218.964 192.519 218.892C191.967 218.82 191.427 218.64 190.899 218.352C190.395 218.064 189.975 217.608 189.639 216.984C189.303 216.336 189.135 215.436 189.135 214.284V197.436C189.135 196.908 189.303 196.476 189.639 196.14C189.999 195.78 190.431 195.6 190.935 195.6ZM219.449 219.36C217.721 219.36 216.185 219.12 214.841 218.64C213.497 218.16 212.213 217.368 210.989 216.264C210.725 216.072 210.521 215.844 210.377 215.58C210.257 215.292 210.197 215.004 210.197 214.716C210.197 214.26 210.365 213.852 210.701 213.492C211.037 213.132 211.457 212.952 211.961 212.952C212.345 212.952 212.705 213.084 213.041 213.348C213.953 214.188 214.901 214.824 215.885 215.256C216.893 215.688 218.069 215.904 219.413 215.904C220.373 215.904 221.249 215.748 222.041 215.436C222.857 215.124 223.505 214.704 223.985 214.176C224.465 213.648 224.705 213.036 224.705 212.34C224.705 211.476 224.453 210.768 223.949 210.216C223.469 209.64 222.761 209.172 221.825 208.812C220.913 208.428 219.809 208.104 218.513 207.84C217.313 207.624 216.233 207.324 215.273 206.94C214.337 206.556 213.533 206.076 212.861 205.5C212.189 204.9 211.673 204.192 211.313 203.376C210.953 202.56 210.773 201.612 210.773 200.532C210.773 199.068 211.157 197.808 211.925 196.752C212.693 195.696 213.737 194.88 215.057 194.304C216.377 193.728 217.865 193.44 219.521 193.44C221.033 193.44 222.449 193.68 223.769 194.16C225.089 194.616 226.157 195.24 226.973 196.032C227.549 196.536 227.837 197.076 227.837 197.652C227.837 198.084 227.657 198.492 227.297 198.876C226.961 199.236 226.565 199.416 226.109 199.416C225.773 199.416 225.485 199.32 225.245 199.128C224.861 198.72 224.345 198.36 223.697 198.048C223.049 197.712 222.353 197.436 221.609 197.22C220.889 197.004 220.193 196.896 219.521 196.896C218.441 196.896 217.517 197.052 216.749 197.364C215.981 197.652 215.393 198.06 214.985 198.588C214.577 199.092 214.373 199.692 214.373 200.388C214.373 201.204 214.601 201.876 215.057 202.404C215.537 202.932 216.197 203.364 217.037 203.7C217.877 204.012 218.837 204.3 219.917 204.564C221.237 204.852 222.413 205.176 223.445 205.536C224.501 205.896 225.389 206.364 226.109 206.94C226.829 207.492 227.381 208.188 227.765 209.028C228.149 209.868 228.341 210.912 228.341 212.16C228.341 213.6 227.933 214.86 227.117 215.94C226.301 217.02 225.221 217.86 223.877 218.46C222.557 219.06 221.081 219.36 219.449 219.36ZM232.12 200.28H240.58C241.06 200.28 241.456 200.448 241.768 200.784C242.104 201.096 242.272 201.492 242.272 201.972C242.272 202.428 242.104 202.812 241.768 203.124C241.456 203.436 241.06 203.592 240.58 203.592H232.12C231.64 203.592 231.232 203.436 230.896 203.124C230.584 202.788 230.428 202.392 230.428 201.936C230.428 201.456 230.584 201.06 230.896 200.748C231.232 200.436 231.64 200.28 232.12 200.28ZM235.9 195.6C236.428 195.6 236.86 195.78 237.196 196.14C237.532 196.476 237.7 196.908 237.7 197.436V214.14C237.7 214.572 237.772 214.92 237.916 215.184C238.06 215.448 238.252 215.628 238.492 215.724C238.756 215.82 239.02 215.868 239.284 215.868C239.548 215.868 239.776 215.82 239.968 215.724C240.184 215.628 240.436 215.58 240.724 215.58C241.012 215.58 241.276 215.712 241.516 215.976C241.756 216.24 241.876 216.6 241.876 217.056C241.876 217.632 241.564 218.1 240.94 218.46C240.316 218.82 239.644 219 238.924 219C238.516 219 238.036 218.964 237.484 218.892C236.932 218.82 236.392 218.64 235.864 218.352C235.36 218.064 234.94 217.608 234.604 216.984C234.268 216.336 234.1 215.436 234.1 214.284V197.436C234.1 196.908 234.268 196.476 234.604 196.14C234.964 195.78 235.396 195.6 235.9 195.6ZM260.37 200.064C260.874 200.064 261.294 200.244 261.63 200.604C261.99 200.94 262.17 201.372 262.17 201.9V211.368C262.17 213.864 261.474 215.82 260.082 217.236C258.69 218.628 256.722 219.324 254.178 219.324C251.658 219.324 249.702 218.628 248.31 217.236C246.942 215.82 246.258 213.864 246.258 211.368V201.9C246.258 201.372 246.426 200.94 246.762 200.604C247.098 200.244 247.53 200.064 248.058 200.064C248.562 200.064 248.982 200.244 249.318 200.604C249.678 200.94 249.858 201.372 249.858 201.9V211.368C249.858 212.928 250.218 214.092 250.938 214.86C251.682 215.628 252.762 216.012 254.178 216.012C255.618 216.012 256.71 215.628 257.454 214.86C258.198 214.092 258.57 212.928 258.57 211.368V201.9C258.57 201.372 258.738 200.94 259.074 200.604C259.41 200.244 259.842 200.064 260.37 200.064ZM282.692 192.36C283.22 192.36 283.652 192.528 283.988 192.864C284.324 193.2 284.492 193.644 284.492 194.196V217.164C284.492 217.692 284.324 218.136 283.988 218.496C283.652 218.832 283.22 219 282.692 219C282.188 219 281.756 218.832 281.396 218.496C281.06 218.136 280.892 217.692 280.892 217.164V214.572L281.648 214.608C281.648 215.04 281.468 215.532 281.108 216.084C280.772 216.612 280.304 217.128 279.704 217.632C279.104 218.136 278.396 218.556 277.58 218.892C276.764 219.204 275.888 219.36 274.952 219.36C273.296 219.36 271.808 218.94 270.488 218.1C269.168 217.236 268.124 216.072 267.356 214.608C266.588 213.12 266.204 211.416 266.204 209.496C266.204 207.576 266.588 205.884 267.356 204.42C268.124 202.932 269.156 201.768 270.452 200.928C271.772 200.064 273.236 199.632 274.844 199.632C275.852 199.632 276.788 199.8 277.652 200.136C278.54 200.472 279.308 200.904 279.956 201.432C280.604 201.96 281.108 202.524 281.468 203.124C281.828 203.7 282.008 204.252 282.008 204.78L280.892 204.888V194.196C280.892 193.668 281.06 193.236 281.396 192.9C281.756 192.54 282.188 192.36 282.692 192.36ZM275.348 216.048C276.5 216.048 277.496 215.76 278.336 215.184C279.2 214.608 279.872 213.828 280.352 212.844C280.832 211.86 281.072 210.744 281.072 209.496C281.072 208.248 280.832 207.132 280.352 206.148C279.872 205.164 279.2 204.384 278.336 203.808C277.472 203.232 276.476 202.944 275.348 202.944C274.244 202.944 273.26 203.232 272.396 203.808C271.556 204.384 270.884 205.164 270.38 206.148C269.9 207.132 269.66 208.248 269.66 209.496C269.66 210.744 269.9 211.86 270.38 212.844C270.884 213.828 271.556 214.608 272.396 215.184C273.26 215.76 274.244 216.048 275.348 216.048ZM292.92 217.164C292.92 217.692 292.752 218.136 292.416 218.496C292.08 218.832 291.648 219 291.12 219C290.616 219 290.184 218.832 289.824 218.496C289.488 218.136 289.32 217.692 289.32 217.164V201.756C289.32 201.228 289.488 200.796 289.824 200.46C290.184 200.1 290.616 199.92 291.12 199.92C291.648 199.92 292.08 200.1 292.416 200.46C292.752 200.796 292.92 201.228 292.92 201.756V217.164ZM291.084 197.544C290.388 197.544 289.884 197.424 289.572 197.184C289.26 196.92 289.104 196.488 289.104 195.888V195.312C289.104 194.712 289.272 194.292 289.608 194.052C289.944 193.812 290.448 193.692 291.12 193.692C291.84 193.692 292.356 193.824 292.668 194.088C292.98 194.328 293.136 194.736 293.136 195.312V195.888C293.136 196.512 292.968 196.944 292.632 197.184C292.32 197.424 291.804 197.544 291.084 197.544ZM315.906 209.532C315.906 211.452 315.486 213.156 314.646 214.644C313.806 216.108 312.666 217.26 311.226 218.1C309.786 218.94 308.166 219.36 306.366 219.36C304.566 219.36 302.946 218.94 301.506 218.1C300.066 217.26 298.914 216.108 298.05 214.644C297.21 213.156 296.79 211.452 296.79 209.532C296.79 207.588 297.21 205.884 298.05 204.42C298.914 202.932 300.066 201.768 301.506 200.928C302.946 200.064 304.566 199.632 306.366 199.632C308.166 199.632 309.786 200.064 311.226 200.928C312.666 201.768 313.806 202.932 314.646 204.42C315.486 205.884 315.906 207.588 315.906 209.532ZM312.306 209.532C312.306 208.212 312.042 207.072 311.514 206.112C310.986 205.128 310.266 204.36 309.354 203.808C308.466 203.232 307.47 202.944 306.366 202.944C305.262 202.944 304.254 203.232 303.342 203.808C302.43 204.36 301.71 205.128 301.182 206.112C300.654 207.072 300.39 208.212 300.39 209.532C300.39 210.804 300.654 211.932 301.182 212.916C301.71 213.9 302.43 214.668 303.342 215.22C304.254 215.772 305.262 216.048 306.366 216.048C307.47 216.048 308.466 215.772 309.354 215.22C310.266 214.668 310.986 213.9 311.514 212.916C312.042 211.932 312.306 210.804 312.306 209.532Z" fill="black"/>
<line x1="89.9897" y1="646.25" x2="310.01" y2="646.25" stroke="black" stroke-width="0.5"/>
<line x1="90" y1="594.75" x2="310.02" y2="594.75" stroke="black" stroke-width="0.5"/>
<rect width="219" height="31" transform="translate(87 720)" fill="#A7F4F4"/>
<path d="M183.782 740.556C183.91 740.556 184.022 740.604 184.118 740.7C184.214 740.785 184.262 740.892 184.262 741.02C184.262 741.159 184.214 741.276 184.118 741.372C184.022 741.457 183.91 741.5 183.782 741.5H178.07C177.931 741.5 177.814 741.452 177.718 741.356C177.633 741.26 177.59 741.148 177.59 741.02V730.78C177.59 730.652 177.638 730.54 177.734 730.444C177.83 730.348 177.953 730.3 178.102 730.3C178.23 730.3 178.342 730.348 178.438 730.444C178.545 730.54 178.598 730.652 178.598 730.78V740.828L178.294 740.556H183.782ZM193.482 737.404C193.482 738.215 193.306 738.945 192.954 739.596C192.602 740.236 192.122 740.743 191.514 741.116C190.906 741.479 190.212 741.66 189.434 741.66C188.676 741.66 187.988 741.479 187.37 741.116C186.762 740.743 186.276 740.236 185.914 739.596C185.562 738.945 185.386 738.215 185.386 737.404C185.386 736.583 185.562 735.852 185.914 735.212C186.276 734.572 186.762 734.065 187.37 733.692C187.988 733.319 188.676 733.132 189.434 733.132C190.212 733.132 190.906 733.319 191.514 733.692C192.122 734.065 192.602 734.572 192.954 735.212C193.306 735.852 193.482 736.583 193.482 737.404ZM192.522 737.404C192.522 736.753 192.388 736.177 192.122 735.676C191.855 735.164 191.487 734.764 191.018 734.476C190.559 734.177 190.031 734.028 189.434 734.028C188.858 734.028 188.335 734.177 187.866 734.476C187.396 734.764 187.023 735.164 186.746 735.676C186.479 736.177 186.346 736.753 186.346 737.404C186.346 738.055 186.479 738.631 186.746 739.132C187.023 739.633 187.396 740.033 187.866 740.332C188.335 740.62 188.858 740.764 189.434 740.764C190.031 740.764 190.559 740.62 191.018 740.332C191.487 740.033 191.855 739.633 192.122 739.132C192.388 738.631 192.522 738.055 192.522 737.404ZM198.93 733.132C199.41 733.132 199.852 733.217 200.258 733.388C200.663 733.548 201.015 733.761 201.314 734.028C201.623 734.284 201.863 734.561 202.034 734.86C202.204 735.148 202.29 735.425 202.29 735.692L202.018 735.308V733.82C202.018 733.681 202.06 733.564 202.146 733.468C202.242 733.372 202.359 733.324 202.498 733.324C202.647 733.324 202.764 733.372 202.85 733.468C202.935 733.564 202.978 733.681 202.978 733.82V740.748C202.978 741.601 202.802 742.321 202.45 742.908C202.098 743.495 201.618 743.937 201.01 744.236C200.412 744.545 199.73 744.7 198.962 744.7C198.588 744.7 198.194 744.652 197.778 744.556C197.372 744.46 197.02 744.337 196.722 744.188C196.434 744.039 196.274 743.884 196.242 743.724C196.156 743.628 196.114 743.532 196.114 743.436C196.124 743.351 196.172 743.276 196.258 743.212C196.364 743.137 196.476 743.127 196.594 743.18C196.711 743.244 196.887 743.324 197.122 743.42C197.228 743.452 197.372 743.5 197.554 743.564C197.735 743.628 197.948 743.681 198.194 743.724C198.45 743.777 198.716 743.804 198.994 743.804C199.954 743.804 200.695 743.527 201.218 742.972C201.751 742.428 202.018 741.708 202.018 740.812V739.276L202.194 739.324C202.098 739.708 201.938 740.044 201.714 740.332C201.5 740.62 201.244 740.865 200.946 741.068C200.647 741.26 200.322 741.404 199.97 741.5C199.628 741.607 199.287 741.66 198.946 741.66C198.21 741.66 197.548 741.473 196.962 741.1C196.375 740.727 195.906 740.22 195.554 739.58C195.212 738.94 195.042 738.209 195.042 737.388C195.042 736.577 195.212 735.852 195.554 735.212C195.906 734.561 196.37 734.055 196.946 733.692C197.532 733.319 198.194 733.132 198.93 733.132ZM199.042 734.028C198.455 734.028 197.927 734.177 197.458 734.476C196.999 734.764 196.636 735.164 196.37 735.676C196.114 736.177 195.986 736.748 195.986 737.388C195.986 738.028 196.114 738.604 196.37 739.116C196.636 739.628 196.999 740.033 197.458 740.332C197.927 740.62 198.455 740.764 199.042 740.764C199.628 740.764 200.151 740.62 200.61 740.332C201.068 740.044 201.431 739.649 201.698 739.148C201.964 738.636 202.098 738.049 202.098 737.388C202.098 736.727 201.964 736.145 201.698 735.644C201.431 735.132 201.068 734.737 200.61 734.46C200.151 734.172 199.628 734.028 199.042 734.028ZM206.434 741.02C206.434 741.148 206.386 741.26 206.29 741.356C206.194 741.452 206.082 741.5 205.954 741.5C205.816 741.5 205.698 741.452 205.602 741.356C205.517 741.26 205.474 741.148 205.474 741.02V733.66C205.474 733.532 205.517 733.42 205.602 733.324C205.698 733.228 205.816 733.18 205.954 733.18C206.093 733.18 206.205 733.228 206.29 733.324C206.386 733.42 206.434 733.532 206.434 733.66V741.02ZM205.954 732.108C205.73 732.108 205.56 732.06 205.442 731.964C205.336 731.857 205.282 731.708 205.282 731.516V731.356C205.282 731.164 205.341 731.02 205.458 730.924C205.586 730.817 205.757 730.764 205.97 730.764C206.173 730.764 206.328 730.817 206.434 730.924C206.552 731.02 206.61 731.164 206.61 731.356V731.516C206.61 731.708 206.552 731.857 206.434 731.964C206.328 732.06 206.168 732.108 205.954 732.108ZM212.784 733.132C213.488 733.132 214.048 733.276 214.464 733.564C214.891 733.841 215.195 734.225 215.376 734.716C215.568 735.196 215.664 735.729 215.664 736.316V741.02C215.664 741.148 215.616 741.26 215.52 741.356C215.424 741.452 215.312 741.5 215.184 741.5C215.035 741.5 214.917 741.452 214.832 741.356C214.747 741.26 214.704 741.148 214.704 741.02V736.364C214.704 735.937 214.635 735.548 214.496 735.196C214.357 734.844 214.128 734.561 213.808 734.348C213.499 734.135 213.088 734.028 212.576 734.028C212.117 734.028 211.68 734.135 211.264 734.348C210.859 734.561 210.528 734.844 210.272 735.196C210.016 735.548 209.888 735.937 209.888 736.364V741.02C209.888 741.148 209.84 741.26 209.744 741.356C209.648 741.452 209.536 741.5 209.408 741.5C209.259 741.5 209.141 741.452 209.056 741.356C208.971 741.26 208.928 741.148 208.928 741.02V733.852C208.928 733.724 208.971 733.612 209.056 733.516C209.152 733.42 209.269 733.372 209.408 733.372C209.547 733.372 209.659 733.42 209.744 733.516C209.84 733.612 209.888 733.724 209.888 733.852V735.196L209.52 735.772C209.541 735.431 209.648 735.105 209.84 734.796C210.043 734.476 210.299 734.193 210.608 733.948C210.917 733.692 211.259 733.495 211.632 733.356C212.016 733.207 212.4 733.132 212.784 733.132Z" fill="black"/>
</g>
<defs>
<clipPath id="clip0_439_1072">
<rect width="393" height="852" fill="white"/>
</clipPath>
</defs>
</svg>
