<svg width="393" height="371" viewBox="0 0 393 371" fill="none" xmlns="http://www.w3.org/2000/svg">
<rect y="42" width="393" height="329" fill="#91D6D6"/>
<rect width="393" height="64" fill="#91D6D6"/>
<path d="M29.944 290.629L24.544 303.589C24.448 303.845 24.304 304.045 24.112 304.189C23.92 304.333 23.704 304.405 23.464 304.405C23.112 304.405 22.848 304.309 22.672 304.117C22.496 303.909 22.4 303.653 22.384 303.349C22.384 303.237 22.408 303.109 22.456 302.965L28.552 288.229C28.664 287.957 28.824 287.749 29.032 287.605C29.256 287.461 29.496 287.397 29.752 287.413C29.992 287.413 30.216 287.485 30.424 287.629C30.632 287.773 30.784 287.973 30.88 288.229L36.904 302.749C36.968 302.909 37 303.069 37 303.229C37 303.581 36.88 303.869 36.64 304.093C36.416 304.301 36.16 304.405 35.872 304.405C35.632 304.405 35.408 304.333 35.2 304.189C35.008 304.029 34.864 303.829 34.768 303.589L29.32 290.701L29.944 290.629ZM25.504 300.181L26.584 297.877H33.376L33.784 300.181H25.504ZM45.4384 291.397C46.5584 291.397 47.5504 291.677 48.4144 292.237C49.2944 292.797 49.9904 293.573 50.5024 294.565C51.0144 295.541 51.2704 296.669 51.2704 297.949C51.2704 299.229 51.0144 300.365 50.5024 301.357C49.9904 302.349 49.3024 303.133 48.4384 303.709C47.5744 304.269 46.5984 304.549 45.5104 304.549C44.9024 304.549 44.3264 304.453 43.7824 304.261C43.2384 304.053 42.7584 303.797 42.3424 303.493C41.9264 303.173 41.5824 302.837 41.3104 302.485C41.0544 302.133 40.8944 301.805 40.8304 301.501L41.4784 301.189V303.277C41.4784 303.613 41.3584 303.901 41.1184 304.141C40.8944 304.365 40.6144 304.477 40.2784 304.477C39.9264 304.477 39.6384 304.365 39.4144 304.141C39.1904 303.917 39.0784 303.629 39.0784 303.277V287.773C39.0784 287.421 39.1904 287.133 39.4144 286.909C39.6384 286.669 39.9264 286.549 40.2784 286.549C40.6144 286.549 40.8944 286.669 41.1184 286.909C41.3584 287.133 41.4784 287.421 41.4784 287.773V294.517L41.0944 294.301C41.1424 293.997 41.2944 293.685 41.5504 293.365C41.8064 293.029 42.1264 292.709 42.5104 292.405C42.9104 292.101 43.3584 291.861 43.8544 291.685C44.3664 291.493 44.8944 291.397 45.4384 291.397ZM45.1744 293.605C44.4064 293.605 43.7344 293.797 43.1584 294.181C42.5984 294.565 42.1584 295.085 41.8384 295.741C41.5184 296.381 41.3584 297.117 41.3584 297.949C41.3584 298.781 41.5184 299.533 41.8384 300.205C42.1584 300.861 42.5984 301.381 43.1584 301.765C43.7344 302.149 44.4064 302.341 45.1744 302.341C45.9264 302.341 46.5824 302.149 47.1424 301.765C47.7024 301.381 48.1424 300.853 48.4624 300.181C48.7984 299.509 48.9664 298.765 48.9664 297.949C48.9664 297.117 48.7984 296.381 48.4624 295.741C48.1424 295.085 47.7024 294.565 47.1424 294.181C46.5824 293.797 45.9264 293.605 45.1744 293.605ZM66.0807 297.997C66.0807 299.277 65.8007 300.413 65.2407 301.405C64.6807 302.381 63.9207 303.149 62.9607 303.709C62.0007 304.269 60.9207 304.549 59.7207 304.549C58.5207 304.549 57.4407 304.269 56.4807 303.709C55.5207 303.149 54.7527 302.381 54.1767 301.405C53.6167 300.413 53.3367 299.277 53.3367 297.997C53.3367 296.701 53.6167 295.565 54.1767 294.589C54.7527 293.597 55.5207 292.821 56.4807 292.261C57.4407 291.685 58.5207 291.397 59.7207 291.397C60.9207 291.397 62.0007 291.685 62.9607 292.261C63.9207 292.821 64.6807 293.597 65.2407 294.589C65.8007 295.565 66.0807 296.701 66.0807 297.997ZM63.6807 297.997C63.6807 297.117 63.5047 296.357 63.1527 295.717C62.8007 295.061 62.3207 294.549 61.7127 294.181C61.1207 293.797 60.4567 293.605 59.7207 293.605C58.9847 293.605 58.3127 293.797 57.7047 294.181C57.0967 294.549 56.6167 295.061 56.2647 295.717C55.9127 296.357 55.7367 297.117 55.7367 297.997C55.7367 298.845 55.9127 299.597 56.2647 300.253C56.6167 300.909 57.0967 301.421 57.7047 301.789C58.3127 302.157 58.9847 302.341 59.7207 302.341C60.4567 302.341 61.1207 302.157 61.7127 301.789C62.3207 301.421 62.8007 300.909 63.1527 300.253C63.5047 299.597 63.6807 298.845 63.6807 297.997ZM78.2052 291.685C78.5412 291.685 78.8212 291.805 79.0452 292.045C79.2852 292.269 79.4052 292.557 79.4052 292.909V299.221C79.4052 300.885 78.9412 302.189 78.0132 303.133C77.0852 304.061 75.7732 304.525 74.0772 304.525C72.3972 304.525 71.0932 304.061 70.1652 303.133C69.2532 302.189 68.7972 300.885 68.7972 299.221V292.909C68.7972 292.557 68.9092 292.269 69.1332 292.045C69.3572 291.805 69.6452 291.685 69.9972 291.685C70.3332 291.685 70.6132 291.805 70.8372 292.045C71.0772 292.269 71.1972 292.557 71.1972 292.909V299.221C71.1972 300.261 71.4372 301.037 71.9172 301.549C72.4132 302.061 73.1332 302.317 74.0772 302.317C75.0372 302.317 75.7652 302.061 76.2612 301.549C76.7572 301.037 77.0052 300.261 77.0052 299.221V292.909C77.0052 292.557 77.1172 292.269 77.3412 292.045C77.5652 291.805 77.8532 291.685 78.2052 291.685ZM82.5745 291.829H88.2145C88.5345 291.829 88.7985 291.941 89.0065 292.165C89.2305 292.373 89.3425 292.637 89.3425 292.957C89.3425 293.261 89.2305 293.517 89.0065 293.725C88.7985 293.933 88.5345 294.037 88.2145 294.037H82.5745C82.2545 294.037 81.9825 293.933 81.7585 293.725C81.5505 293.501 81.4465 293.237 81.4465 292.933C81.4465 292.613 81.5505 292.349 81.7585 292.141C81.9825 291.933 82.2545 291.829 82.5745 291.829ZM85.0945 288.709C85.4465 288.709 85.7345 288.829 85.9585 289.069C86.1825 289.293 86.2945 289.581 86.2945 289.933V301.069C86.2945 301.357 86.3425 301.589 86.4385 301.765C86.5345 301.941 86.6625 302.061 86.8225 302.125C86.9985 302.189 87.1745 302.221 87.3505 302.221C87.5265 302.221 87.6785 302.189 87.8065 302.125C87.9505 302.061 88.1185 302.029 88.3105 302.029C88.5025 302.029 88.6785 302.117 88.8385 302.293C88.9985 302.469 89.0785 302.709 89.0785 303.013C89.0785 303.397 88.8705 303.709 88.4545 303.949C88.0385 304.189 87.5905 304.309 87.1105 304.309C86.8385 304.309 86.5185 304.285 86.1505 304.237C85.7825 304.189 85.4225 304.069 85.0705 303.877C84.7345 303.685 84.4545 303.381 84.2305 302.965C84.0065 302.533 83.8945 301.933 83.8945 301.165V289.933C83.8945 289.581 84.0065 289.293 84.2305 289.069C84.4705 288.829 84.7585 288.709 85.0945 288.709ZM110.872 287.485C111.224 287.485 111.504 287.605 111.712 287.845C111.92 288.069 112.024 288.357 112.024 288.709V297.805C112.024 299.085 111.744 300.229 111.184 301.237C110.624 302.245 109.856 303.037 108.88 303.613C107.904 304.173 106.776 304.453 105.496 304.453C104.232 304.453 103.104 304.173 102.112 303.613C101.136 303.037 100.36 302.245 99.784 301.237C99.224 300.229 98.944 299.085 98.944 297.805V288.709C98.944 288.357 99.064 288.069 99.304 287.845C99.544 287.605 99.856 287.485 100.24 287.485C100.544 287.485 100.816 287.605 101.056 287.845C101.312 288.069 101.44 288.357 101.44 288.709V297.805C101.44 298.653 101.624 299.397 101.992 300.037C102.376 300.661 102.88 301.157 103.504 301.525C104.128 301.877 104.792 302.053 105.496 302.053C106.264 302.053 106.968 301.877 107.608 301.525C108.248 301.157 108.76 300.661 109.144 300.037C109.544 299.397 109.744 298.653 109.744 297.805V288.709C109.744 288.357 109.84 288.069 110.032 287.845C110.24 287.605 110.52 287.485 110.872 287.485ZM114.928 302.341C114.784 302.117 114.72 301.861 114.736 301.573C114.752 301.269 114.92 301.013 115.24 300.805C115.464 300.661 115.696 300.605 115.936 300.637C116.192 300.653 116.432 300.773 116.656 300.997C117.104 301.493 117.6 301.885 118.144 302.173C118.704 302.461 119.376 302.605 120.16 302.605C120.48 302.589 120.808 302.541 121.144 302.461C121.48 302.365 121.768 302.205 122.008 301.981C122.248 301.741 122.368 301.397 122.368 300.949C122.368 300.549 122.24 300.229 121.984 299.989C121.728 299.749 121.392 299.557 120.976 299.413C120.56 299.253 120.112 299.109 119.632 298.981C119.12 298.837 118.6 298.677 118.072 298.501C117.56 298.325 117.096 298.101 116.68 297.829C116.264 297.541 115.92 297.173 115.648 296.725C115.392 296.277 115.264 295.725 115.264 295.069C115.264 294.317 115.472 293.669 115.888 293.125C116.32 292.581 116.872 292.157 117.544 291.853C118.232 291.549 118.976 291.397 119.776 291.397C120.24 291.397 120.728 291.461 121.24 291.589C121.752 291.701 122.248 291.885 122.728 292.141C123.208 292.397 123.624 292.733 123.976 293.149C124.136 293.357 124.224 293.605 124.24 293.893C124.272 294.181 124.144 294.437 123.856 294.661C123.664 294.821 123.432 294.893 123.16 294.877C122.888 294.861 122.664 294.773 122.488 294.613C122.184 294.229 121.792 293.933 121.312 293.725C120.832 293.501 120.288 293.389 119.68 293.389C119.376 293.389 119.056 293.437 118.72 293.533C118.4 293.613 118.128 293.765 117.904 293.989C117.68 294.213 117.568 294.541 117.568 294.973C117.568 295.373 117.696 295.693 117.952 295.933C118.224 296.173 118.576 296.373 119.008 296.533C119.44 296.693 119.912 296.837 120.424 296.965C120.92 297.093 121.408 297.245 121.888 297.421C122.384 297.597 122.824 297.829 123.208 298.117C123.608 298.389 123.928 298.749 124.168 299.197C124.424 299.629 124.552 300.181 124.552 300.853C124.552 301.637 124.32 302.309 123.856 302.869C123.408 303.413 122.832 303.829 122.128 304.117C121.44 304.405 120.712 304.549 119.944 304.549C119.032 304.549 118.12 304.389 117.208 304.069C116.312 303.733 115.552 303.157 114.928 302.341Z" fill="black"/>
<path d="M19.192 238.634C19.384 238.634 19.584 238.682 19.792 238.778C20 238.874 20.16 239.01 20.272 239.186L26.368 248.474L25.336 248.426L31.552 239.186C31.808 238.818 32.136 238.634 32.536 238.634C32.856 238.634 33.136 238.754 33.376 238.994C33.632 239.218 33.76 239.506 33.76 239.858V254.234C33.76 254.586 33.648 254.882 33.424 255.122C33.2 255.346 32.904 255.458 32.536 255.458C32.152 255.458 31.84 255.346 31.6 255.122C31.376 254.882 31.264 254.586 31.264 254.234V242.066L32.032 242.234L26.752 250.274C26.64 250.418 26.496 250.546 26.32 250.658C26.144 250.754 25.96 250.794 25.768 250.778C25.592 250.794 25.408 250.754 25.216 250.658C25.04 250.546 24.896 250.418 24.784 250.274L19.696 242.354L20.272 241.394V254.234C20.272 254.586 20.16 254.882 19.936 255.122C19.728 255.346 19.448 255.458 19.096 255.458C18.76 255.458 18.48 255.346 18.256 255.122C18.048 254.882 17.944 254.586 17.944 254.234V239.858C17.944 239.522 18.064 239.234 18.304 238.994C18.56 238.754 18.856 238.634 19.192 238.634ZM43.2944 255.698C41.9664 255.698 40.8144 255.426 39.8384 254.882C38.8624 254.322 38.1024 253.562 37.5584 252.602C37.0304 251.626 36.7664 250.514 36.7664 249.266C36.7664 247.858 37.0464 246.658 37.6064 245.666C38.1824 244.658 38.9264 243.89 39.8384 243.362C40.7504 242.818 41.7184 242.546 42.7424 242.546C43.5264 242.546 44.2704 242.706 44.9744 243.026C45.6784 243.33 46.3024 243.762 46.8464 244.322C47.4064 244.866 47.8464 245.514 48.1664 246.266C48.4864 247.002 48.6544 247.81 48.6704 248.69C48.6544 249.01 48.5264 249.274 48.2864 249.482C48.0464 249.69 47.7664 249.794 47.4464 249.794H38.1104L37.5344 247.754H46.5584L46.1024 248.186V247.586C46.0704 247.026 45.8864 246.538 45.5504 246.122C45.2144 245.69 44.7984 245.362 44.3024 245.138C43.8064 244.898 43.2864 244.778 42.7424 244.778C42.2624 244.778 41.7984 244.858 41.3504 245.018C40.9184 245.162 40.5264 245.402 40.1744 245.738C39.8384 246.074 39.5664 246.522 39.3584 247.082C39.1664 247.626 39.0704 248.306 39.0704 249.122C39.0704 250.002 39.2544 250.77 39.6224 251.426C39.9904 252.082 40.4864 252.594 41.1104 252.962C41.7344 253.314 42.4224 253.49 43.1744 253.49C43.7664 253.49 44.2544 253.434 44.6384 253.322C45.0224 253.194 45.3424 253.042 45.5984 252.866C45.8544 252.69 46.0784 252.522 46.2704 252.362C46.5104 252.218 46.7504 252.146 46.9904 252.146C47.2784 252.146 47.5184 252.25 47.7104 252.458C47.9024 252.65 47.9984 252.882 47.9984 253.154C47.9984 253.506 47.8224 253.826 47.4704 254.114C47.0384 254.53 46.4384 254.898 45.6704 255.218C44.9184 255.538 44.1264 255.698 43.2944 255.698ZM57.7191 242.618C58.9031 242.618 59.8151 242.914 60.4551 243.506C61.0951 244.082 61.5191 244.866 61.7271 245.858L61.3431 245.738L61.5111 245.354C61.7191 244.938 62.0311 244.522 62.4471 244.106C62.8791 243.674 63.3911 243.322 63.9831 243.05C64.5751 242.762 65.2071 242.618 65.8791 242.618C66.9831 242.618 67.8391 242.858 68.4471 243.338C69.0551 243.802 69.4791 244.434 69.7191 245.234C69.9591 246.018 70.0791 246.898 70.0791 247.874V254.234C70.0791 254.586 69.9671 254.882 69.7431 255.122C69.5191 255.346 69.2311 255.458 68.8791 255.458C68.5431 255.458 68.2551 255.346 68.0151 255.122C67.7911 254.882 67.6791 254.586 67.6791 254.234V247.898C67.6791 247.338 67.5991 246.826 67.4391 246.362C67.2951 245.898 67.0311 245.53 66.6471 245.258C66.2791 244.97 65.7671 244.826 65.1111 244.826C64.4871 244.826 63.9271 244.97 63.4311 245.258C62.9511 245.53 62.5751 245.898 62.3031 246.362C62.0311 246.826 61.8951 247.338 61.8951 247.898V254.234C61.8951 254.586 61.7831 254.882 61.5591 255.122C61.3351 255.346 61.0471 255.458 60.6951 255.458C60.3431 255.458 60.0551 255.346 59.8311 255.122C59.6071 254.882 59.4951 254.586 59.4951 254.234V247.874C59.4951 247.314 59.4151 246.802 59.2551 246.338C59.1111 245.874 58.8551 245.506 58.4871 245.234C58.1191 244.962 57.6071 244.826 56.9511 244.826C56.3271 244.826 55.7751 244.962 55.2951 245.234C54.8151 245.506 54.4391 245.874 54.1671 246.338C53.9111 246.802 53.7831 247.314 53.7831 247.874V254.234C53.7831 254.586 53.6631 254.882 53.4231 255.122C53.1991 255.346 52.9191 255.458 52.5831 255.458C52.2311 255.458 51.9431 255.346 51.7191 255.122C51.4951 254.882 51.3831 254.586 51.3831 254.234V244.058C51.3831 243.706 51.4951 243.418 51.7191 243.194C51.9431 242.954 52.2311 242.834 52.5831 242.834C52.9191 242.834 53.1991 242.954 53.4231 243.194C53.6631 243.418 53.7831 243.706 53.7831 244.058V245.474L53.3271 245.738C53.4391 245.386 53.6231 245.026 53.8791 244.658C54.1351 244.29 54.4551 243.954 54.8391 243.65C55.2391 243.346 55.6791 243.098 56.1591 242.906C56.6391 242.714 57.1591 242.618 57.7191 242.618ZM79.7978 242.546C80.9178 242.546 81.9098 242.826 82.7738 243.386C83.6538 243.946 84.3498 244.722 84.8618 245.714C85.3738 246.69 85.6298 247.818 85.6298 249.098C85.6298 250.378 85.3738 251.514 84.8618 252.506C84.3498 253.498 83.6618 254.282 82.7978 254.858C81.9338 255.418 80.9578 255.698 79.8698 255.698C79.2618 255.698 78.6858 255.602 78.1418 255.41C77.5978 255.202 77.1178 254.946 76.7018 254.642C76.2858 254.322 75.9418 253.986 75.6698 253.634C75.4138 253.282 75.2538 252.954 75.1898 252.65L75.8378 252.338V254.426C75.8378 254.762 75.7178 255.05 75.4778 255.29C75.2538 255.514 74.9738 255.626 74.6378 255.626C74.2858 255.626 73.9978 255.514 73.7738 255.29C73.5498 255.066 73.4378 254.778 73.4378 254.426V238.922C73.4378 238.57 73.5498 238.282 73.7738 238.058C73.9978 237.818 74.2858 237.698 74.6378 237.698C74.9738 237.698 75.2538 237.818 75.4778 238.058C75.7178 238.282 75.8378 238.57 75.8378 238.922V245.666L75.4538 245.45C75.5018 245.146 75.6538 244.834 75.9098 244.514C76.1658 244.178 76.4858 243.858 76.8698 243.554C77.2698 243.25 77.7178 243.01 78.2138 242.834C78.7258 242.642 79.2538 242.546 79.7978 242.546ZM79.5338 244.754C78.7658 244.754 78.0938 244.946 77.5178 245.33C76.9578 245.714 76.5178 246.234 76.1978 246.89C75.8778 247.53 75.7178 248.266 75.7178 249.098C75.7178 249.93 75.8778 250.682 76.1978 251.354C76.5178 252.01 76.9578 252.53 77.5178 252.914C78.0938 253.298 78.7658 253.49 79.5338 253.49C80.2858 253.49 80.9418 253.298 81.5018 252.914C82.0618 252.53 82.5018 252.002 82.8218 251.33C83.1578 250.658 83.3258 249.914 83.3258 249.098C83.3258 248.266 83.1578 247.53 82.8218 246.89C82.5018 246.234 82.0618 245.714 81.5018 245.33C80.9418 244.946 80.2858 244.754 79.5338 244.754ZM94.2241 255.698C92.8961 255.698 91.7441 255.426 90.7681 254.882C89.7921 254.322 89.0321 253.562 88.4881 252.602C87.9601 251.626 87.6961 250.514 87.6961 249.266C87.6961 247.858 87.9761 246.658 88.5361 245.666C89.1121 244.658 89.8561 243.89 90.7681 243.362C91.6801 242.818 92.6481 242.546 93.6721 242.546C94.4561 242.546 95.2001 242.706 95.9041 243.026C96.6081 243.33 97.2321 243.762 97.7761 244.322C98.3361 244.866 98.7761 245.514 99.0961 246.266C99.4161 247.002 99.5841 247.81 99.6001 248.69C99.5841 249.01 99.4561 249.274 99.2161 249.482C98.9761 249.69 98.6961 249.794 98.3761 249.794H89.0401L88.4641 247.754H97.4881L97.0321 248.186V247.586C97.0001 247.026 96.8161 246.538 96.4801 246.122C96.1441 245.69 95.7281 245.362 95.2321 245.138C94.7361 244.898 94.2161 244.778 93.6721 244.778C93.1921 244.778 92.7281 244.858 92.2801 245.018C91.8481 245.162 91.4561 245.402 91.1041 245.738C90.7681 246.074 90.4961 246.522 90.2881 247.082C90.0961 247.626 90.0001 248.306 90.0001 249.122C90.0001 250.002 90.1841 250.77 90.5521 251.426C90.9201 252.082 91.4161 252.594 92.0401 252.962C92.6641 253.314 93.3521 253.49 94.1041 253.49C94.6961 253.49 95.1841 253.434 95.5681 253.322C95.9521 253.194 96.2721 253.042 96.5281 252.866C96.7841 252.69 97.0081 252.522 97.2001 252.362C97.4401 252.218 97.6801 252.146 97.9201 252.146C98.2081 252.146 98.4481 252.25 98.6401 252.458C98.8321 252.65 98.9281 252.882 98.9281 253.154C98.9281 253.506 98.7521 253.826 98.4001 254.114C97.9681 254.53 97.3681 254.898 96.6001 255.218C95.8481 255.538 95.0561 255.698 94.2241 255.698ZM103.513 255.458C103.161 255.458 102.873 255.346 102.649 255.122C102.425 254.882 102.313 254.586 102.313 254.234V244.058C102.313 243.706 102.425 243.418 102.649 243.194C102.873 242.954 103.161 242.834 103.513 242.834C103.849 242.834 104.129 242.954 104.353 243.194C104.593 243.418 104.713 243.706 104.713 244.058V246.746L104.473 245.714C104.601 245.266 104.793 244.85 105.049 244.466C105.321 244.082 105.641 243.746 106.009 243.458C106.377 243.17 106.785 242.946 107.233 242.786C107.697 242.626 108.177 242.546 108.673 242.546C109.089 242.546 109.449 242.658 109.753 242.882C110.057 243.106 110.209 243.386 110.209 243.722C110.209 244.154 110.097 244.474 109.873 244.682C109.649 244.874 109.401 244.97 109.129 244.97C108.889 244.97 108.657 244.922 108.433 244.826C108.209 244.714 107.945 244.658 107.641 244.658C107.305 244.658 106.961 244.746 106.609 244.922C106.257 245.098 105.937 245.362 105.649 245.714C105.361 246.05 105.129 246.45 104.953 246.914C104.793 247.378 104.713 247.898 104.713 248.474V254.234C104.713 254.586 104.593 254.882 104.353 255.122C104.129 255.346 103.849 255.458 103.513 255.458ZM111.6 253.49C111.456 253.266 111.392 253.01 111.408 252.722C111.424 252.418 111.592 252.162 111.912 251.954C112.136 251.81 112.368 251.754 112.608 251.786C112.864 251.802 113.104 251.922 113.328 252.146C113.776 252.642 114.272 253.034 114.816 253.322C115.376 253.61 116.048 253.754 116.832 253.754C117.152 253.738 117.48 253.69 117.816 253.61C118.152 253.514 118.44 253.354 118.68 253.13C118.92 252.89 119.04 252.546 119.04 252.098C119.04 251.698 118.912 251.378 118.656 251.138C118.4 250.898 118.064 250.706 117.648 250.562C117.232 250.402 116.784 250.258 116.304 250.13C115.792 249.986 115.272 249.826 114.744 249.65C114.232 249.474 113.768 249.25 113.352 248.978C112.936 248.69 112.592 248.322 112.32 247.874C112.064 247.426 111.936 246.874 111.936 246.218C111.936 245.466 112.144 244.818 112.56 244.274C112.992 243.73 113.544 243.306 114.216 243.002C114.904 242.698 115.648 242.546 116.448 242.546C116.912 242.546 117.4 242.61 117.912 242.738C118.424 242.85 118.92 243.034 119.4 243.29C119.88 243.546 120.296 243.882 120.648 244.298C120.808 244.506 120.896 244.754 120.912 245.042C120.944 245.33 120.816 245.586 120.528 245.81C120.336 245.97 120.104 246.042 119.832 246.026C119.56 246.01 119.336 245.922 119.16 245.762C118.856 245.378 118.464 245.082 117.984 244.874C117.504 244.65 116.96 244.538 116.352 244.538C116.048 244.538 115.728 244.586 115.392 244.682C115.072 244.762 114.8 244.914 114.576 245.138C114.352 245.362 114.24 245.69 114.24 246.122C114.24 246.522 114.368 246.842 114.624 247.082C114.896 247.322 115.248 247.522 115.68 247.682C116.112 247.842 116.584 247.986 117.096 248.114C117.592 248.242 118.08 248.394 118.56 248.57C119.056 248.746 119.496 248.978 119.88 249.266C120.28 249.538 120.6 249.898 120.84 250.346C121.096 250.778 121.224 251.33 121.224 252.002C121.224 252.786 120.992 253.458 120.528 254.018C120.08 254.562 119.504 254.978 118.8 255.266C118.112 255.554 117.384 255.698 116.616 255.698C115.704 255.698 114.792 255.538 113.88 255.218C112.984 254.882 112.224 254.306 111.6 253.49ZM130.165 242.618C131.269 242.618 132.125 242.858 132.733 243.338C133.341 243.802 133.765 244.434 134.005 245.234C134.261 246.034 134.389 246.914 134.389 247.874V254.234C134.389 254.586 134.269 254.882 134.029 255.122C133.805 255.346 133.525 255.458 133.189 255.458C132.837 255.458 132.549 255.346 132.325 255.122C132.101 254.882 131.989 254.586 131.989 254.234V247.874C131.989 247.314 131.909 246.802 131.749 246.338C131.605 245.874 131.341 245.506 130.957 245.234C130.589 244.962 130.069 244.826 129.397 244.826C128.773 244.826 128.213 244.962 127.717 245.234C127.237 245.506 126.861 245.874 126.589 246.338C126.333 246.802 126.205 247.314 126.205 247.874V254.234C126.205 254.586 126.085 254.882 125.845 255.122C125.621 255.346 125.341 255.458 125.005 255.458C124.653 255.458 124.365 255.346 124.141 255.122C123.917 254.882 123.805 254.586 123.805 254.234V238.922C123.805 238.57 123.917 238.282 124.141 238.058C124.365 237.818 124.653 237.698 125.005 237.698C125.341 237.698 125.621 237.818 125.845 238.058C126.085 238.282 126.205 238.57 126.205 238.922V245.474L125.773 245.714C125.885 245.362 126.069 245.002 126.325 244.634C126.597 244.266 126.925 243.93 127.309 243.626C127.709 243.322 128.149 243.082 128.629 242.906C129.109 242.714 129.621 242.618 130.165 242.618ZM139.983 254.234C139.983 254.586 139.871 254.882 139.647 255.122C139.423 255.346 139.135 255.458 138.783 255.458C138.447 255.458 138.159 255.346 137.919 255.122C137.695 254.882 137.583 254.586 137.583 254.234V243.962C137.583 243.61 137.695 243.322 137.919 243.098C138.159 242.858 138.447 242.738 138.783 242.738C139.135 242.738 139.423 242.858 139.647 243.098C139.871 243.322 139.983 243.61 139.983 243.962V254.234ZM138.759 241.154C138.295 241.154 137.959 241.074 137.751 240.914C137.543 240.738 137.439 240.45 137.439 240.05V239.666C137.439 239.266 137.551 238.986 137.775 238.826C137.999 238.666 138.335 238.586 138.783 238.586C139.263 238.586 139.607 238.674 139.815 238.85C140.023 239.01 140.127 239.282 140.127 239.666V240.05C140.127 240.466 140.015 240.754 139.791 240.914C139.583 241.074 139.239 241.154 138.759 241.154ZM149.571 242.618C150.691 242.618 151.683 242.898 152.547 243.458C153.427 244.018 154.123 244.786 154.635 245.762C155.147 246.722 155.403 247.842 155.403 249.122C155.403 250.402 155.147 251.538 154.635 252.53C154.123 253.506 153.435 254.274 152.571 254.834C151.707 255.394 150.731 255.674 149.643 255.674C149.035 255.674 148.459 255.578 147.915 255.386C147.371 255.194 146.891 254.946 146.475 254.642C146.059 254.322 145.715 253.986 145.443 253.634C145.187 253.282 145.027 252.954 144.963 252.65L145.611 252.338V259.034C145.611 259.386 145.491 259.674 145.251 259.898C145.027 260.138 144.747 260.258 144.411 260.258C144.059 260.258 143.771 260.138 143.547 259.898C143.323 259.674 143.211 259.386 143.211 259.034V244.01C143.211 243.674 143.323 243.386 143.547 243.146C143.771 242.906 144.059 242.786 144.411 242.786C144.747 242.786 145.027 242.906 145.251 243.146C145.491 243.386 145.611 243.674 145.611 244.01V245.666L145.227 245.45C145.275 245.146 145.427 244.834 145.683 244.514C145.939 244.178 146.259 243.866 146.643 243.578C147.043 243.29 147.491 243.058 147.987 242.882C148.499 242.706 149.027 242.618 149.571 242.618ZM149.307 244.826C148.539 244.826 147.867 245.018 147.291 245.402C146.731 245.77 146.291 246.274 145.971 246.914C145.651 247.554 145.491 248.29 145.491 249.122C145.491 249.938 145.651 250.682 145.971 251.354C146.291 252.01 146.731 252.53 147.291 252.914C147.867 253.282 148.539 253.466 149.307 253.466C150.059 253.466 150.715 253.282 151.275 252.914C151.835 252.53 152.275 252.01 152.595 251.354C152.931 250.682 153.099 249.938 153.099 249.122C153.099 248.306 152.931 247.578 152.595 246.938C152.275 246.282 151.835 245.77 151.275 245.402C150.715 245.018 150.059 244.826 149.307 244.826Z" fill="black"/>
<path d="M28.232 202.26C28.568 202.26 28.848 202.372 29.072 202.596C29.312 202.82 29.432 203.1 29.432 203.436C29.432 203.772 29.312 204.052 29.072 204.276C28.848 204.5 28.568 204.612 28.232 204.612H20.168C19.816 204.612 19.52 204.5 19.28 204.276C19.056 204.036 18.944 203.74 18.944 203.388V189.036C18.944 188.684 19.064 188.396 19.304 188.172C19.544 187.932 19.856 187.812 20.24 187.812C20.56 187.812 20.84 187.932 21.08 188.172C21.336 188.396 21.464 188.684 21.464 189.036V202.668L20.96 202.26H28.232ZM44.0182 198.3C44.0182 199.58 43.7382 200.716 43.1782 201.708C42.6182 202.684 41.8582 203.452 40.8982 204.012C39.9382 204.572 38.8582 204.852 37.6582 204.852C36.4582 204.852 35.3782 204.572 34.4182 204.012C33.4582 203.452 32.6902 202.684 32.1142 201.708C31.5542 200.716 31.2742 199.58 31.2742 198.3C31.2742 197.004 31.5542 195.868 32.1142 194.892C32.6902 193.9 33.4582 193.124 34.4182 192.564C35.3782 191.988 36.4582 191.7 37.6582 191.7C38.8582 191.7 39.9382 191.988 40.8982 192.564C41.8582 193.124 42.6182 193.9 43.1782 194.892C43.7382 195.868 44.0182 197.004 44.0182 198.3ZM41.6182 198.3C41.6182 197.42 41.4422 196.66 41.0902 196.02C40.7382 195.364 40.2582 194.852 39.6502 194.484C39.0582 194.1 38.3942 193.908 37.6582 193.908C36.9222 193.908 36.2502 194.1 35.6422 194.484C35.0342 194.852 34.5542 195.364 34.2022 196.02C33.8502 196.66 33.6742 197.42 33.6742 198.3C33.6742 199.148 33.8502 199.9 34.2022 200.556C34.5542 201.212 35.0342 201.724 35.6422 202.092C36.2502 202.46 36.9222 202.644 37.6582 202.644C38.3942 202.644 39.0582 202.46 39.6502 202.092C40.2582 201.724 40.7382 201.212 41.0902 200.556C41.4422 199.9 41.6182 199.148 41.6182 198.3ZM51.9907 191.7C52.6787 191.7 53.3107 191.812 53.8867 192.036C54.4627 192.26 54.9587 192.548 55.3747 192.9C55.8067 193.236 56.1427 193.588 56.3827 193.956C56.6227 194.324 56.7427 194.644 56.7427 194.916L56.1907 194.94V193.02C56.1907 192.684 56.3027 192.396 56.5267 192.156C56.7507 191.916 57.0387 191.796 57.3907 191.796C57.7427 191.796 58.0307 191.916 58.2547 192.156C58.4787 192.38 58.5907 192.668 58.5907 193.02V203.604C58.5907 204.964 58.3027 206.068 57.7267 206.916C57.1507 207.78 56.3827 208.412 55.4227 208.812C54.4787 209.212 53.4387 209.412 52.3027 209.412C51.9027 209.412 51.4307 209.356 50.8867 209.244C50.3427 209.148 49.8387 209.028 49.3747 208.884C48.9267 208.74 48.6147 208.596 48.4387 208.452C48.0707 208.26 47.8227 208.036 47.6947 207.78C47.5827 207.524 47.5827 207.268 47.6947 207.012C47.8547 206.66 48.0707 206.444 48.3427 206.364C48.6147 206.284 48.9267 206.308 49.2787 206.436C49.4387 206.484 49.6867 206.572 50.0227 206.7C50.3587 206.828 50.7347 206.94 51.1507 207.036C51.5667 207.148 51.9587 207.204 52.3267 207.204C53.6067 207.204 54.5667 206.908 55.2067 206.316C55.8627 205.724 56.1907 204.916 56.1907 203.892V201.732L56.4547 201.9C56.4067 202.236 56.2547 202.58 55.9987 202.932C55.7587 203.268 55.4387 203.58 55.0387 203.868C54.6387 204.156 54.1747 204.396 53.6467 204.588C53.1347 204.764 52.6067 204.852 52.0627 204.852C50.9267 204.852 49.9107 204.572 49.0147 204.012C48.1187 203.436 47.4067 202.66 46.8787 201.684C46.3507 200.692 46.0867 199.556 46.0867 198.276C46.0867 196.996 46.3507 195.868 46.8787 194.892C47.4067 193.9 48.1107 193.124 48.9907 192.564C49.8867 191.988 50.8867 191.7 51.9907 191.7ZM52.3507 193.908C51.5667 193.908 50.8787 194.1 50.2867 194.484C49.6947 194.868 49.2307 195.388 48.8947 196.044C48.5587 196.7 48.3907 197.444 48.3907 198.276C48.3907 199.108 48.5587 199.852 48.8947 200.508C49.2307 201.164 49.6947 201.684 50.2867 202.068C50.8787 202.452 51.5667 202.644 52.3507 202.644C53.1347 202.644 53.8227 202.46 54.4147 202.092C55.0067 201.708 55.4707 201.188 55.8067 200.532C56.1427 199.86 56.3107 199.108 56.3107 198.276C56.3107 197.444 56.1427 196.7 55.8067 196.044C55.4707 195.372 55.0067 194.852 54.4147 194.484C53.8227 194.1 53.1347 193.908 52.3507 193.908ZM64.1782 203.388C64.1782 203.74 64.0662 204.036 63.8422 204.276C63.6182 204.5 63.3302 204.612 62.9782 204.612C62.6422 204.612 62.3542 204.5 62.1142 204.276C61.8902 204.036 61.7782 203.74 61.7782 203.388V193.116C61.7782 192.764 61.8902 192.476 62.1142 192.252C62.3542 192.012 62.6422 191.892 62.9782 191.892C63.3302 191.892 63.6182 192.012 63.8422 192.252C64.0662 192.476 64.1782 192.764 64.1782 193.116V203.388ZM62.9542 190.308C62.4902 190.308 62.1542 190.228 61.9462 190.068C61.7382 189.892 61.6342 189.604 61.6342 189.204V188.82C61.6342 188.42 61.7462 188.14 61.9702 187.98C62.1942 187.82 62.5302 187.74 62.9782 187.74C63.4582 187.74 63.8022 187.828 64.0102 188.004C64.2182 188.164 64.3222 188.436 64.3222 188.82V189.204C64.3222 189.62 64.2102 189.908 63.9862 190.068C63.7782 190.228 63.4342 190.308 62.9542 190.308ZM73.9106 191.7C75.0466 191.7 75.9266 191.94 76.5506 192.42C77.1746 192.884 77.6066 193.516 77.8466 194.316C78.1026 195.1 78.2306 195.98 78.2306 196.956V203.388C78.2306 203.74 78.1106 204.036 77.8706 204.276C77.6466 204.5 77.3666 204.612 77.0306 204.612C76.6786 204.612 76.3906 204.5 76.1666 204.276C75.9426 204.036 75.8306 203.74 75.8306 203.388V196.98C75.8306 196.404 75.7506 195.892 75.5906 195.444C75.4306 194.98 75.1506 194.612 74.7506 194.34C74.3666 194.052 73.8226 193.908 73.1186 193.908C72.4626 193.908 71.8866 194.052 71.3906 194.34C70.8946 194.612 70.5026 194.98 70.2146 195.444C69.9426 195.892 69.8066 196.404 69.8066 196.98V203.388C69.8066 203.74 69.6866 204.036 69.4466 204.276C69.2226 204.5 68.9426 204.612 68.6066 204.612C68.2546 204.612 67.9666 204.5 67.7426 204.276C67.5186 204.036 67.4066 203.74 67.4066 203.388V193.212C67.4066 192.86 67.5186 192.572 67.7426 192.348C67.9666 192.108 68.2546 191.988 68.6066 191.988C68.9426 191.988 69.2226 192.108 69.4466 192.348C69.6866 192.572 69.8066 192.86 69.8066 193.212V194.556L69.3746 194.796C69.4866 194.444 69.6786 194.092 69.9506 193.74C70.2386 193.372 70.5826 193.036 70.9826 192.732C71.3826 192.412 71.8306 192.164 72.3266 191.988C72.8226 191.796 73.3506 191.7 73.9106 191.7Z" fill="black"/>
<path d="M29.872 137.927C30.224 138.103 30.424 138.375 30.472 138.743C30.536 139.111 30.448 139.447 30.208 139.751C30.032 139.991 29.8 140.127 29.512 140.159C29.24 140.191 28.968 140.135 28.696 139.991C28.232 139.751 27.744 139.559 27.232 139.415C26.72 139.271 26.176 139.199 25.6 139.199C24.688 139.199 23.864 139.351 23.128 139.655C22.408 139.943 21.784 140.367 21.256 140.927C20.728 141.471 20.32 142.119 20.032 142.871C19.76 143.623 19.624 144.455 19.624 145.367C19.624 146.375 19.776 147.271 20.08 148.055C20.384 148.823 20.8 149.479 21.328 150.023C21.872 150.551 22.504 150.951 23.224 151.223C23.96 151.479 24.752 151.607 25.6 151.607C26.144 151.607 26.672 151.543 27.184 151.415C27.712 151.287 28.208 151.095 28.672 150.839C28.96 150.695 29.24 150.647 29.512 150.695C29.8 150.727 30.032 150.863 30.208 151.103C30.48 151.439 30.576 151.783 30.496 152.135C30.432 152.471 30.232 152.727 29.896 152.903C29.496 153.127 29.056 153.319 28.576 153.479C28.096 153.639 27.608 153.767 27.112 153.863C26.616 153.959 26.112 154.007 25.6 154.007C24.448 154.007 23.36 153.815 22.336 153.431C21.312 153.047 20.4 152.487 19.6 151.751C18.8 151.015 18.168 150.111 17.704 149.039C17.256 147.967 17.032 146.743 17.032 145.367C17.032 144.135 17.24 142.999 17.656 141.959C18.088 140.903 18.688 139.999 19.456 139.247C20.24 138.479 21.152 137.887 22.192 137.471C23.232 137.039 24.368 136.823 25.6 136.823C26.368 136.823 27.112 136.919 27.832 137.111C28.568 137.303 29.248 137.575 29.872 137.927ZM35.5298 152.543C35.5298 152.895 35.4098 153.191 35.1698 153.431C34.9458 153.655 34.6658 153.767 34.3298 153.767C33.9938 153.767 33.7058 153.655 33.4658 153.431C33.2418 153.191 33.1298 152.895 33.1298 152.543V137.231C33.1298 136.879 33.2498 136.591 33.4898 136.367C33.7298 136.127 34.0178 136.007 34.3538 136.007C34.7058 136.007 34.9858 136.127 35.1938 136.367C35.4178 136.591 35.5298 136.879 35.5298 137.231V152.543ZM49.4459 140.951C49.7979 140.951 50.0859 141.071 50.3099 141.311C50.5339 141.535 50.6459 141.823 50.6459 142.175V152.543C50.6459 152.895 50.5339 153.191 50.3099 153.431C50.0859 153.655 49.7979 153.767 49.4459 153.767C49.1099 153.767 48.8219 153.655 48.5819 153.431C48.3579 153.191 48.2459 152.895 48.2459 152.543V150.815L48.7499 150.887C48.7499 151.175 48.6299 151.495 48.3899 151.847C48.1659 152.199 47.8539 152.543 47.4539 152.879C47.0539 153.199 46.5819 153.471 46.0379 153.695C45.4939 153.903 44.9099 154.007 44.2859 154.007C43.1819 154.007 42.1899 153.727 41.3099 153.167C40.4299 152.591 39.7339 151.807 39.2219 150.815C38.7099 149.823 38.4539 148.695 38.4539 147.431C38.4539 146.135 38.7099 144.999 39.2219 144.023C39.7339 143.031 40.4219 142.255 41.2859 141.695C42.1659 141.135 43.1419 140.855 44.2139 140.855C44.9019 140.855 45.5339 140.967 46.1099 141.191C46.7019 141.415 47.2139 141.703 47.6459 142.055C48.0779 142.407 48.4059 142.783 48.6299 143.183C48.8699 143.567 48.9899 143.935 48.9899 144.287L48.2459 144.359V142.175C48.2459 141.839 48.3579 141.551 48.5819 141.311C48.8219 141.071 49.1099 140.951 49.4459 140.951ZM44.5499 151.799C45.3019 151.799 45.9659 151.607 46.5419 151.223C47.1179 150.839 47.5659 150.319 47.8859 149.663C48.2059 148.991 48.3659 148.247 48.3659 147.431C48.3659 146.599 48.2059 145.855 47.8859 145.199C47.5659 144.543 47.1179 144.023 46.5419 143.639C45.9659 143.255 45.3019 143.063 44.5499 143.063C43.8139 143.063 43.1579 143.255 42.5819 143.639C42.0219 144.023 41.5739 144.543 41.2379 145.199C40.9179 145.855 40.7579 146.599 40.7579 147.431C40.7579 148.247 40.9179 148.991 41.2379 149.663C41.5739 150.319 42.0219 150.839 42.5819 151.223C43.1579 151.607 43.8139 151.799 44.5499 151.799ZM53.2641 151.799C53.1201 151.575 53.0561 151.319 53.0721 151.031C53.0881 150.727 53.2561 150.471 53.5761 150.263C53.8001 150.119 54.0321 150.063 54.2721 150.095C54.5281 150.111 54.7681 150.231 54.9921 150.455C55.4401 150.951 55.9361 151.343 56.4801 151.631C57.0401 151.919 57.7121 152.063 58.4961 152.063C58.8161 152.047 59.1441 151.999 59.4801 151.919C59.8161 151.823 60.1041 151.663 60.3441 151.439C60.5841 151.199 60.7041 150.855 60.7041 150.407C60.7041 150.007 60.5761 149.687 60.3201 149.447C60.0641 149.207 59.7281 149.015 59.3121 148.871C58.8961 148.711 58.4481 148.567 57.9681 148.439C57.4561 148.295 56.9361 148.135 56.4081 147.959C55.8961 147.783 55.4321 147.559 55.0161 147.287C54.6001 146.999 54.2561 146.631 53.9841 146.183C53.7281 145.735 53.6001 145.183 53.6001 144.527C53.6001 143.775 53.8081 143.127 54.2241 142.583C54.6561 142.039 55.2081 141.615 55.8801 141.311C56.5681 141.007 57.3121 140.855 58.1121 140.855C58.5761 140.855 59.0641 140.919 59.5761 141.047C60.0881 141.159 60.5841 141.343 61.0641 141.599C61.5441 141.855 61.9601 142.191 62.3121 142.607C62.4721 142.815 62.5601 143.063 62.5761 143.351C62.6081 143.639 62.4801 143.895 62.1921 144.119C62.0001 144.279 61.7681 144.351 61.4961 144.335C61.2241 144.319 61.0001 144.231 60.8241 144.071C60.5201 143.687 60.1281 143.391 59.6481 143.183C59.1681 142.959 58.6241 142.847 58.0161 142.847C57.7121 142.847 57.3921 142.895 57.0561 142.991C56.7361 143.071 56.4641 143.223 56.2401 143.447C56.0161 143.671 55.9041 143.999 55.9041 144.431C55.9041 144.831 56.0321 145.151 56.2881 145.391C56.5601 145.631 56.9121 145.831 57.3441 145.991C57.7761 146.151 58.2481 146.295 58.7601 146.423C59.2561 146.551 59.7441 146.703 60.2241 146.879C60.7201 147.055 61.1601 147.287 61.5441 147.575C61.9441 147.847 62.2641 148.207 62.5041 148.655C62.7601 149.087 62.8881 149.639 62.8881 150.311C62.8881 151.095 62.6561 151.767 62.1921 152.327C61.7441 152.871 61.1681 153.287 60.4641 153.575C59.7761 153.863 59.0481 154.007 58.2801 154.007C57.3681 154.007 56.4561 153.847 55.5441 153.527C54.6481 153.191 53.8881 152.615 53.2641 151.799ZM64.7251 151.799C64.5811 151.575 64.5171 151.319 64.5331 151.031C64.5491 150.727 64.7171 150.471 65.0371 150.263C65.2611 150.119 65.4931 150.063 65.7331 150.095C65.9891 150.111 66.2291 150.231 66.4531 150.455C66.9011 150.951 67.3971 151.343 67.9411 151.631C68.5011 151.919 69.1731 152.063 69.9571 152.063C70.2771 152.047 70.6051 151.999 70.9411 151.919C71.2771 151.823 71.5651 151.663 71.8051 151.439C72.0451 151.199 72.1651 150.855 72.1651 150.407C72.1651 150.007 72.0371 149.687 71.7811 149.447C71.5251 149.207 71.1891 149.015 70.7731 148.871C70.3571 148.711 69.9091 148.567 69.4291 148.439C68.9171 148.295 68.3971 148.135 67.8691 147.959C67.3571 147.783 66.8931 147.559 66.4771 147.287C66.0611 146.999 65.7171 146.631 65.4451 146.183C65.1891 145.735 65.0611 145.183 65.0611 144.527C65.0611 143.775 65.2691 143.127 65.6851 142.583C66.1171 142.039 66.6691 141.615 67.3411 141.311C68.0291 141.007 68.7731 140.855 69.5731 140.855C70.0371 140.855 70.5251 140.919 71.0371 141.047C71.5491 141.159 72.0451 141.343 72.5251 141.599C73.0051 141.855 73.4211 142.191 73.7731 142.607C73.9331 142.815 74.0211 143.063 74.0371 143.351C74.0691 143.639 73.9411 143.895 73.6531 144.119C73.4611 144.279 73.2291 144.351 72.9571 144.335C72.6851 144.319 72.4611 144.231 72.2851 144.071C71.9811 143.687 71.5891 143.391 71.1091 143.183C70.6291 142.959 70.0851 142.847 69.4771 142.847C69.1731 142.847 68.8531 142.895 68.5171 142.991C68.1971 143.071 67.9251 143.223 67.7011 143.447C67.4771 143.671 67.3651 143.999 67.3651 144.431C67.3651 144.831 67.4931 145.151 67.7491 145.391C68.0211 145.631 68.3731 145.831 68.8051 145.991C69.2371 146.151 69.7091 146.295 70.2211 146.423C70.7171 146.551 71.2051 146.703 71.6851 146.879C72.1811 147.055 72.6211 147.287 73.0051 147.575C73.4051 147.847 73.7251 148.207 73.9651 148.655C74.2211 149.087 74.3491 149.639 74.3491 150.311C74.3491 151.095 74.1171 151.767 73.6531 152.327C73.2051 152.871 72.6291 153.287 71.9251 153.575C71.2371 153.863 70.5091 154.007 69.7411 154.007C68.8291 154.007 67.9171 153.847 67.0051 153.527C66.1091 153.191 65.3491 152.615 64.7251 151.799ZM82.81 154.007C81.482 154.007 80.33 153.735 79.354 153.191C78.378 152.631 77.618 151.871 77.074 150.911C76.546 149.935 76.282 148.823 76.282 147.575C76.282 146.167 76.562 144.967 77.122 143.975C77.698 142.967 78.442 142.199 79.354 141.671C80.266 141.127 81.234 140.855 82.258 140.855C83.042 140.855 83.786 141.015 84.49 141.335C85.194 141.639 85.818 142.071 86.362 142.631C86.922 143.175 87.362 143.823 87.682 144.575C88.002 145.311 88.17 146.119 88.186 146.999C88.17 147.319 88.042 147.583 87.802 147.791C87.562 147.999 87.282 148.103 86.962 148.103H77.626L77.05 146.063H86.074L85.618 146.495V145.895C85.586 145.335 85.402 144.847 85.066 144.431C84.73 143.999 84.314 143.671 83.818 143.447C83.322 143.207 82.802 143.087 82.258 143.087C81.778 143.087 81.314 143.167 80.866 143.327C80.434 143.471 80.042 143.711 79.69 144.047C79.354 144.383 79.082 144.831 78.874 145.391C78.682 145.935 78.586 146.615 78.586 147.431C78.586 148.311 78.77 149.079 79.138 149.735C79.506 150.391 80.002 150.903 80.626 151.271C81.25 151.623 81.938 151.799 82.69 151.799C83.282 151.799 83.77 151.743 84.154 151.631C84.538 151.503 84.858 151.351 85.114 151.175C85.37 150.999 85.594 150.831 85.786 150.671C86.026 150.527 86.266 150.455 86.506 150.455C86.794 150.455 87.034 150.559 87.226 150.767C87.418 150.959 87.514 151.191 87.514 151.463C87.514 151.815 87.338 152.135 86.986 152.423C86.554 152.839 85.954 153.207 85.186 153.527C84.434 153.847 83.642 154.007 82.81 154.007ZM90.1548 151.799C90.0108 151.575 89.9468 151.319 89.9628 151.031C89.9788 150.727 90.1468 150.471 90.4668 150.263C90.6908 150.119 90.9227 150.063 91.1628 150.095C91.4188 150.111 91.6588 150.231 91.8828 150.455C92.3308 150.951 92.8268 151.343 93.3708 151.631C93.9308 151.919 94.6028 152.063 95.3867 152.063C95.7068 152.047 96.0348 151.999 96.3708 151.919C96.7068 151.823 96.9948 151.663 97.2348 151.439C97.4748 151.199 97.5948 150.855 97.5948 150.407C97.5948 150.007 97.4668 149.687 97.2108 149.447C96.9548 149.207 96.6188 149.015 96.2028 148.871C95.7868 148.711 95.3388 148.567 94.8588 148.439C94.3468 148.295 93.8268 148.135 93.2988 147.959C92.7868 147.783 92.3228 147.559 91.9068 147.287C91.4908 146.999 91.1468 146.631 90.8748 146.183C90.6188 145.735 90.4908 145.183 90.4908 144.527C90.4908 143.775 90.6988 143.127 91.1148 142.583C91.5468 142.039 92.0988 141.615 92.7708 141.311C93.4588 141.007 94.2028 140.855 95.0028 140.855C95.4668 140.855 95.9548 140.919 96.4668 141.047C96.9788 141.159 97.4748 141.343 97.9548 141.599C98.4348 141.855 98.8508 142.191 99.2028 142.607C99.3628 142.815 99.4508 143.063 99.4668 143.351C99.4988 143.639 99.3708 143.895 99.0828 144.119C98.8908 144.279 98.6588 144.351 98.3868 144.335C98.1148 144.319 97.8908 144.231 97.7148 144.071C97.4108 143.687 97.0188 143.391 96.5388 143.183C96.0588 142.959 95.5148 142.847 94.9068 142.847C94.6028 142.847 94.2828 142.895 93.9468 142.991C93.6268 143.071 93.3548 143.223 93.1308 143.447C92.9068 143.671 92.7948 143.999 92.7948 144.431C92.7948 144.831 92.9228 145.151 93.1788 145.391C93.4508 145.631 93.8028 145.831 94.2348 145.991C94.6668 146.151 95.1388 146.295 95.6508 146.423C96.1468 146.551 96.6348 146.703 97.1148 146.879C97.6108 147.055 98.0508 147.287 98.4348 147.575C98.8348 147.847 99.1548 148.207 99.3948 148.655C99.6508 149.087 99.7788 149.639 99.7788 150.311C99.7788 151.095 99.5468 151.767 99.0828 152.327C98.6348 152.871 98.0588 153.287 97.3548 153.575C96.6668 153.863 95.9388 154.007 95.1708 154.007C94.2588 154.007 93.3468 153.847 92.4348 153.527C91.5388 153.191 90.7788 152.615 90.1548 151.799Z" fill="black"/>
<path d="M18.24 88.1152C18.56 88.1152 18.84 88.2352 19.08 88.4752C19.336 88.6992 19.464 88.9872 19.464 89.3392V103.691C19.448 104.043 19.312 104.339 19.056 104.579C18.816 104.803 18.528 104.915 18.192 104.915C17.824 104.915 17.52 104.803 17.28 104.579C17.056 104.339 16.944 104.043 16.944 103.691V89.3392C16.944 88.9872 17.064 88.6992 17.304 88.4752C17.544 88.2352 17.856 88.1152 18.24 88.1152ZM29.064 88.1152C29.448 88.1152 29.752 88.2352 29.976 88.4752C30.2 88.6992 30.312 88.9872 30.312 89.3392V103.691C30.312 104.043 30.192 104.339 29.952 104.579C29.728 104.803 29.424 104.915 29.04 104.915C28.704 104.915 28.416 104.803 28.176 104.579C27.936 104.339 27.816 104.043 27.816 103.691V89.3392C27.816 88.9872 27.936 88.6992 28.176 88.4752C28.432 88.2352 28.728 88.1152 29.064 88.1152ZM18.144 95.2672H29.088L29.064 97.5712H18.12L18.144 95.2672ZM46.026 98.6032C46.026 99.8832 45.746 101.019 45.186 102.011C44.626 102.987 43.866 103.755 42.906 104.315C41.946 104.875 40.866 105.155 39.666 105.155C38.466 105.155 37.386 104.875 36.426 104.315C35.466 103.755 34.698 102.987 34.122 102.011C33.562 101.019 33.282 99.8832 33.282 98.6032C33.282 97.3072 33.562 96.1712 34.122 95.1952C34.698 94.2032 35.466 93.4272 36.426 92.8672C37.386 92.2912 38.466 92.0032 39.666 92.0032C40.866 92.0032 41.946 92.2912 42.906 92.8672C43.866 93.4272 44.626 94.2032 45.186 95.1952C45.746 96.1712 46.026 97.3072 46.026 98.6032ZM43.626 98.6032C43.626 97.7232 43.45 96.9632 43.098 96.3232C42.746 95.6672 42.266 95.1552 41.658 94.7872C41.066 94.4032 40.402 94.2112 39.666 94.2112C38.93 94.2112 38.258 94.4032 37.65 94.7872C37.042 95.1552 36.562 95.6672 36.21 96.3232C35.858 96.9632 35.682 97.7232 35.682 98.6032C35.682 99.4512 35.858 100.203 36.21 100.859C36.562 101.515 37.042 102.027 37.65 102.395C38.258 102.763 38.93 102.947 39.666 102.947C40.402 102.947 41.066 102.763 41.658 102.395C42.266 102.027 42.746 101.515 43.098 100.859C43.45 100.203 43.626 99.4512 43.626 98.6032ZM55.0785 92.0752C56.2625 92.0752 57.1745 92.3712 57.8145 92.9632C58.4545 93.5392 58.8785 94.3232 59.0865 95.3152L58.7025 95.1952L58.8705 94.8112C59.0785 94.3952 59.3905 93.9792 59.8065 93.5632C60.2385 93.1312 60.7505 92.7792 61.3425 92.5072C61.9345 92.2192 62.5665 92.0752 63.2385 92.0752C64.3425 92.0752 65.1985 92.3152 65.8065 92.7952C66.4145 93.2592 66.8385 93.8912 67.0785 94.6912C67.3185 95.4752 67.4385 96.3552 67.4385 97.3312V103.691C67.4385 104.043 67.3265 104.339 67.1025 104.579C66.8785 104.803 66.5905 104.915 66.2385 104.915C65.9025 104.915 65.6145 104.803 65.3745 104.579C65.1505 104.339 65.0385 104.043 65.0385 103.691V97.3552C65.0385 96.7952 64.9585 96.2832 64.7985 95.8192C64.6545 95.3552 64.3905 94.9872 64.0065 94.7152C63.6385 94.4272 63.1265 94.2832 62.4705 94.2832C61.8465 94.2832 61.2865 94.4272 60.7905 94.7152C60.3105 94.9872 59.9345 95.3552 59.6625 95.8192C59.3905 96.2832 59.2545 96.7952 59.2545 97.3552V103.691C59.2545 104.043 59.1425 104.339 58.9185 104.579C58.6945 104.803 58.4065 104.915 58.0545 104.915C57.7025 104.915 57.4145 104.803 57.1905 104.579C56.9665 104.339 56.8545 104.043 56.8545 103.691V97.3312C56.8545 96.7712 56.7745 96.2592 56.6145 95.7952C56.4705 95.3312 56.2145 94.9632 55.8465 94.6912C55.4785 94.4192 54.9665 94.2832 54.3105 94.2832C53.6865 94.2832 53.1345 94.4192 52.6545 94.6912C52.1745 94.9632 51.7985 95.3312 51.5265 95.7952C51.2705 96.2592 51.1425 96.7712 51.1425 97.3312V103.691C51.1425 104.043 51.0225 104.339 50.7825 104.579C50.5585 104.803 50.2785 104.915 49.9425 104.915C49.5905 104.915 49.3025 104.803 49.0785 104.579C48.8545 104.339 48.7425 104.043 48.7425 103.691V93.5152C48.7425 93.1632 48.8545 92.8752 49.0785 92.6512C49.3025 92.4112 49.5905 92.2912 49.9425 92.2912C50.2785 92.2912 50.5585 92.4112 50.7825 92.6512C51.0225 92.8752 51.1425 93.1632 51.1425 93.5152V94.9312L50.6865 95.1952C50.7985 94.8432 50.9825 94.4832 51.2385 94.1152C51.4945 93.7472 51.8145 93.4112 52.1985 93.1072C52.5985 92.8032 53.0385 92.5552 53.5185 92.3632C53.9985 92.1712 54.5185 92.0752 55.0785 92.0752ZM76.6772 105.155C75.3492 105.155 74.1972 104.883 73.2212 104.339C72.2452 103.779 71.4852 103.019 70.9412 102.059C70.4132 101.083 70.1492 99.9712 70.1492 98.7232C70.1492 97.3152 70.4292 96.1152 70.9892 95.1232C71.5652 94.1152 72.3092 93.3472 73.2212 92.8192C74.1332 92.2752 75.1012 92.0032 76.1252 92.0032C76.9092 92.0032 77.6532 92.1632 78.3572 92.4832C79.0612 92.7872 79.6852 93.2192 80.2292 93.7792C80.7892 94.3232 81.2292 94.9712 81.5492 95.7232C81.8692 96.4592 82.0372 97.2672 82.0532 98.1472C82.0372 98.4672 81.9092 98.7312 81.6692 98.9392C81.4292 99.1472 81.1492 99.2512 80.8292 99.2512H71.4932L70.9172 97.2112H79.9412L79.4852 97.6432V97.0432C79.4532 96.4832 79.2692 95.9952 78.9332 95.5792C78.5972 95.1472 78.1812 94.8192 77.6852 94.5952C77.1892 94.3552 76.6692 94.2352 76.1252 94.2352C75.6452 94.2352 75.1812 94.3152 74.7332 94.4752C74.3012 94.6192 73.9092 94.8592 73.5572 95.1952C73.2212 95.5312 72.9492 95.9792 72.7412 96.5392C72.5492 97.0832 72.4532 97.7632 72.4532 98.5792C72.4532 99.4592 72.6372 100.227 73.0052 100.883C73.3732 101.539 73.8692 102.051 74.4932 102.419C75.1172 102.771 75.8052 102.947 76.5572 102.947C77.1492 102.947 77.6372 102.891 78.0212 102.779C78.4052 102.651 78.7252 102.499 78.9812 102.323C79.2372 102.147 79.4612 101.979 79.6532 101.819C79.8932 101.675 80.1332 101.603 80.3732 101.603C80.6612 101.603 80.9012 101.707 81.0932 101.915C81.2852 102.107 81.3812 102.339 81.3812 102.611C81.3812 102.963 81.2052 103.283 80.8532 103.571C80.4212 103.987 79.8212 104.355 79.0532 104.675C78.3012 104.995 77.5092 105.155 76.6772 105.155Z" fill="black"/>
</svg>
